<svg width="24" height="24" viewBox="0 0 24 24" fill="none" xmlns="http://www.w3.org/2000/svg">
<g clip-path="url(#clip0_1021_4631)">
<path d="M23.25 10.125V13.875C23.25 14.9092 22.4092 15.75 21.375 15.75H20.8645C20.1475 19.9995 16.4509 23.25 12 23.25C11.5854 23.25 11.25 22.9146 11.25 22.5C11.25 22.0854 11.5854 21.75 12 21.75C16.1353 21.75 19.5 18.3853 19.5 14.25V9.75C19.5 5.61475 16.1353 2.25 12 2.25C7.86475 2.25 4.5 5.61475 4.5 9.75V15C4.5 15.4146 4.16455 15.75 3.75 15.75H2.625C1.59082 15.75 0.75 14.9092 0.75 13.875V10.125C0.75 9.09082 1.59082 8.25 2.625 8.25H3.1355C3.85254 4.00049 7.54907 0.75 12 0.75C16.4509 0.75 20.1475 4.00049 20.8645 8.25H21.375C22.4092 8.25 23.25 9.09082 23.25 10.125ZM12 3.75C8.69165 3.75 6 6.44165 6 9.75V13.5C6 16.8083 8.69165 19.5 12 19.5C15.3083 19.5 18 16.8083 18 13.5V9.75C18 6.44165 15.3083 3.75 12 3.75Z" fill="#F30F1D"/>
</g>
<defs>
<clipPath id="clip0_1021_4631">
<rect width="24" height="24" fill="white"/>
</clipPath>
</defs>
</svg>
