<svg width="25" height="25" viewBox="0 0 25 25" fill="none" xmlns="http://www.w3.org/2000/svg">
<g clip-path="url(#clip0_2026_1471)">
<path d="M24.079 12.9802C24.079 6.34187 18.6976 0.960449 12.0593 0.960449C5.42097 0.960449 0.0395508 6.34187 0.0395508 12.9802C0.0395508 18.9796 4.435 23.9522 10.1812 24.8538V16.4546H7.12932V12.9802H10.1812V10.3321C10.1812 7.31964 11.9757 5.65566 14.7212 5.65566C16.0363 5.65566 17.4118 5.89042 17.4118 5.89042V8.8484H15.8961C14.403 8.8484 13.9374 9.77492 13.9374 10.7255V12.9802H17.271L16.7381 16.4546H13.9374V24.8538C19.6836 23.9522 24.079 18.9796 24.079 12.9802Z" fill="white"/>
</g>
<defs>
<clipPath id="clip0_2026_1471">
<rect width="24.0395" height="24.0395" fill="white" transform="translate(0.0395508 0.960449)"/>
</clipPath>
</defs>
</svg>
