<svg width="353" height="145" viewBox="0 0 353 145" fill="none" xmlns="http://www.w3.org/2000/svg">
<g clip-path="url(#clip0_82_2449)">
<path d="M185.961 95.2237C185.397 95.187 184.833 95.1215 184.267 95.1188C178.277 95.111 172.289 95.1162 166.299 95.1136C164.144 95.1136 164.141 95.1057 164.138 92.8922C164.138 91.8432 164.172 90.7915 164.11 89.7451C164.091 89.412 163.816 89.0947 163.658 88.7695C163.407 88.961 163.102 89.1104 162.908 89.3491C161.065 91.6124 159.024 93.6371 156.431 95.0585C153.616 96.6006 150.687 97.6365 147.448 97.8726C141.44 98.3105 135.798 96.9861 130.703 93.9544C125.127 90.6368 120.96 85.8925 118.203 79.9339C116.677 76.6373 115.576 73.2515 115.083 69.6481C115.03 69.2731 114.419 68.919 113.997 68.6699C113.769 68.5335 113.399 68.6384 113.092 68.6384C99.5829 68.6384 86.0765 68.6384 72.5675 68.6384C70.6871 68.6384 70.6163 68.662 70.8208 70.5529C71.3427 75.3706 75.0721 80.0257 79.9947 81.4577C83.8237 82.5723 87.5111 82.2707 90.9598 80.2591C91.8961 79.7136 92.6802 78.8351 93.3805 77.9827C94.1227 77.0806 94.8675 76.6032 96.1211 76.619C102.022 76.6924 107.923 76.6531 113.826 76.6531C114.298 76.6531 114.77 76.6531 115.738 76.6531C114.687 78.6803 113.858 80.4454 112.882 82.1238C109.94 87.1854 105.945 91.1928 100.719 93.8914C97.4613 95.5725 94.0073 96.7003 90.3592 97.1356C88.1536 97.4005 85.9349 97.7677 83.7267 97.7414C75.3343 97.647 67.6186 95.4152 61.0359 89.989C56.706 86.4196 53.4854 82.0347 51.5421 76.7449C49.4938 71.1744 48.7149 65.4598 49.604 59.5589C49.7797 58.3971 49.9554 57.2353 50.215 56.0918C50.4196 55.187 50.1547 54.7386 49.2184 54.7228C48.9562 54.7176 48.6939 54.715 48.4316 54.715C41.3506 54.715 34.267 54.715 27.1859 54.715C25.3527 54.715 25.3475 54.7228 25.3475 56.5219C25.3475 68.7643 25.3475 81.004 25.3475 93.2463C25.3475 94.93 25.198 95.1031 23.4697 95.1083C16.1684 95.1214 8.86965 95.1005 1.56832 95.1293C0.375032 95.1346 0.00786781 94.7018 0.00786781 93.5007C0.0340939 62.8949 0.0340939 32.2917 0 1.68852C0 0.406071 0.393391 0.0520191 1.63126 0.0546417C19.0742 0.086113 36.5145 0.086113 53.9575 0.0546417C55.2688 0.0546417 55.6727 0.4559 55.6595 1.78294C55.5914 7.77297 55.6018 13.763 55.6517 19.7504C55.6622 20.962 55.2583 21.3213 54.0729 21.3161C45.1114 21.2794 36.15 21.2951 27.1885 21.2977C25.3501 21.2977 25.3475 21.3056 25.3449 23.0942C25.3422 26.3305 25.3396 29.5642 25.3449 32.8005C25.3475 34.3164 25.5756 34.5445 27.2358 34.5471C33.4435 34.5603 39.6512 34.5524 45.8589 34.555C47.6947 34.555 49.5331 34.5917 51.3663 34.5419C52.3629 34.5157 52.738 34.8225 52.7196 35.8899C52.6593 39.4304 52.7012 42.971 52.7117 46.5141C52.7117 46.7265 52.7773 46.939 52.8586 47.4294C53.3018 47.0124 53.7031 46.7685 53.9155 46.4118C57.6108 40.2303 62.8743 36.0263 69.5961 33.4483C75.8693 31.0433 82.3393 30.5398 88.8801 31.3135C97.6684 32.352 105.098 36.1312 110.485 43.3696C112.528 46.1128 114.188 49.0869 115.19 52.3966C115.321 52.8319 115.699 53.1912 116.076 53.7525C117.029 51.6544 117.826 49.8002 118.702 47.9854C120.771 43.7 123.737 40.1333 127.524 37.2694C130.734 34.8409 134.27 33.1493 138.219 32.158C142.725 31.0276 147.212 30.9411 151.689 31.8485C155.696 32.6615 159.271 34.5026 162.195 37.453C162.41 37.668 162.625 37.8936 162.88 38.0562C163.113 38.2031 163.506 38.4286 163.632 38.3394C163.871 38.169 164.044 37.8175 164.107 37.5107C164.188 37.133 164.133 36.7265 164.133 36.3331C164.133 24.8776 164.133 13.4247 164.136 1.96914C164.136 0.0756227 164.146 0.0703774 166.029 0.0703774C172.106 0.0703774 178.182 0.0703774 184.259 0.0651322C184.825 0.0651322 185.392 0.0179253 185.956 -0.00830078V95.2237H185.961ZM163.234 64.9694C163.42 59.3176 162.444 56.5482 160.758 53.7551C157.249 47.9434 152.838 47.1881 147.236 48.1821C143.656 48.8167 141.073 51.3449 139.331 54.6022C137.186 58.6174 136.493 62.929 137.086 67.3717C137.514 70.5739 138.741 73.561 140.931 76.0394C143.724 79.1996 147.173 80.642 151.453 80.3641C156.008 80.0703 159.216 77.8516 161.288 73.9492C162.843 71.0223 163.567 67.849 163.236 64.9694H163.234ZM83.4251 55.3837C86.7872 55.3837 90.1494 55.3837 93.5116 55.3837C95.413 55.3837 95.5389 55.2421 95.2189 53.3774C95.1612 53.0418 95.0196 52.7166 94.8806 52.4045C93.2834 48.8089 90.7815 46.3698 86.7951 45.4178C83.9601 44.7412 81.2903 44.8671 78.6677 45.9712C75.1953 47.432 73.0396 50.1202 71.8017 53.6371C71.3217 54.9956 71.4975 55.3759 72.9478 55.3811C76.4411 55.3916 79.9344 55.3837 83.4277 55.3837H83.4251Z" fill="#482F92"/>
<path d="M185.961 -0.2229C186.527 -0.207165 187.096 -0.180939 187.663 -0.180939C203.968 -0.180939 220.272 -0.180939 236.577 -0.178316C238.355 -0.178316 238.361 -0.173071 238.361 1.64177C238.361 7.36954 238.361 13.0947 238.361 18.8225C238.361 20.0498 237.727 20.6644 236.459 20.6661C227.629 20.6661 218.799 20.6661 209.968 20.6661C208.017 20.6661 207.951 20.7343 207.949 22.6331C207.946 25.8248 207.946 29.0165 207.949 32.2082C207.949 34.1516 208.151 34.3614 210.149 34.364C218.586 34.3719 227.023 34.3561 235.46 34.3745C238.859 34.3824 238.337 33.9785 238.355 37.3092C238.381 42.2921 238.363 47.2777 238.361 52.2607C238.361 54.0152 238.353 54.0204 236.643 54.0204C227.768 54.0204 218.896 54.0204 210.021 54.0204C208.006 54.0204 207.949 54.0834 207.949 56.0713C207.949 61.1854 207.949 66.3021 207.949 71.4162C207.949 73.3753 208.274 73.7162 210.23 73.7162C218.974 73.7241 227.715 73.7188 236.459 73.7215C238.358 73.7215 238.361 73.7267 238.361 75.5782C238.361 81.1749 238.361 86.7689 238.361 92.3655C238.361 94.1725 238.361 94.1778 236.577 94.1778C220.228 94.1778 203.879 94.1778 187.532 94.1778C187.007 94.1778 186.483 94.1935 185.958 94.2014V-0.2229H185.961Z" fill="#F47922"/>
<path d="M320.178 34.5239C316.315 38.8276 312.625 42.9189 308.956 47.0285C307.159 49.04 305.413 51.0909 303.624 53.1103C300.831 56.2653 298.025 59.4098 295.221 62.5569C293.852 64.0938 293.871 64.0964 295.229 65.6411C299.195 70.1415 303.121 74.6786 307.107 79.1606C309.674 82.0481 312.342 84.8464 314.933 87.713C316.79 89.7665 318.591 91.8672 320.574 94.12C319.939 94.1488 319.48 94.1855 319.024 94.1855C310.894 94.1882 302.764 94.1777 294.636 94.2013C293.65 94.2039 292.995 93.9207 292.305 93.1339C288.602 88.9167 284.815 84.7756 281.03 80.6319C279.829 79.3154 279.509 79.3049 278.253 80.7001C276.394 82.7693 274.629 84.9199 272.808 87.0232C270.902 89.221 268.99 91.4187 267.039 93.5745C266.753 93.8892 266.221 94.1514 265.801 94.1541C257.54 94.1855 249.278 94.1777 241.02 94.1698C240.86 94.1698 240.7 94.0938 240.286 93.9915C241.015 93.0788 241.615 92.2579 242.284 91.4974C245.502 87.8441 248.725 84.1934 251.975 80.569C254.411 77.852 256.913 75.1979 259.344 72.4756C261.458 70.1074 263.511 67.6815 265.596 65.2871C266.236 64.5501 266.228 63.939 265.531 63.1601C261.959 59.179 258.442 55.1481 254.907 51.1329C251.175 46.8921 247.448 42.6435 243.705 38.4106C242.622 37.1858 241.492 36.0004 240.12 34.5108C241.038 34.4478 241.573 34.3797 242.106 34.3797C249.625 34.3718 257.144 34.4583 264.657 34.3193C266.666 34.2826 268.022 34.9356 269.278 36.3728C272.738 40.3303 276.273 44.2223 279.766 48.151C280.456 48.9272 281.078 49.0584 281.812 48.2034C284.133 45.4969 286.472 42.8087 288.812 40.1205C290.207 38.5155 291.565 36.8738 293.039 35.3448C293.503 34.8648 294.285 34.4242 294.925 34.419C303.01 34.3561 311.096 34.377 319.181 34.3823C319.428 34.3823 319.674 34.4505 320.181 34.5265L320.178 34.5239Z" fill="#F47922"/>
<path d="M215.224 134.479C215.224 136.622 215.274 138.765 215.185 140.905C215.164 141.377 214.744 142.111 214.351 142.242C212.305 142.924 210.233 143.58 208.122 143.991C206.344 144.338 204.487 144.553 202.683 144.456C196.771 144.141 191.697 142.122 188.507 136.75C187.259 134.647 186.386 132.384 186.265 129.916C186.179 128.127 186.155 126.328 186.255 124.542C186.59 118.623 190.697 112.764 196.535 110.621C200.031 109.339 203.545 109.205 207.086 109.601C209.163 109.835 211.177 110.708 213.189 111.39C213.923 111.639 214.235 112.339 213.913 113.105C213.543 113.984 212.879 113.669 212.263 113.394C209.501 112.164 206.593 111.214 203.595 111.353C197.776 111.621 192.871 113.761 190.173 119.365C188.389 123.071 188.135 126.945 188.998 130.954C189.816 134.77 191.592 137.894 194.956 140.018C197.209 141.44 199.622 142.261 202.313 142.274C205.497 142.289 208.673 142.379 211.704 141.107C212.562 140.747 212.929 140.241 212.927 139.344C212.911 136.242 212.9 133.137 212.932 130.034C212.942 129.056 212.51 128.72 211.586 128.731C209.357 128.757 207.128 128.731 204.899 128.741C204.078 128.746 203.359 128.607 203.367 127.592C203.375 126.632 204.075 126.543 204.838 126.549C207.81 126.562 210.784 126.575 213.755 126.543C214.838 126.533 215.24 127.034 215.229 128.057C215.211 130.199 215.224 132.342 215.224 134.482V134.479Z" fill="#482F92"/>
<path d="M331.164 138.463C330.946 138.869 330.757 139.294 330.506 139.677C328.822 142.253 326.504 143.692 323.393 144.109C320.359 144.516 317.629 144.086 315.187 142.221C312.502 140.17 310.988 137.385 310.621 134.081C310.343 131.579 310.314 129.056 311.167 126.58C312.536 122.604 316.504 119.014 321.104 118.985C325.279 118.959 328.562 120.149 331.143 123.74C331.224 123.244 331.374 122.748 331.376 122.253C331.397 118.059 331.363 113.863 331.424 109.669C331.431 109.187 331.799 108.442 332.187 108.285C333.199 107.878 333.682 108.324 333.684 109.475C333.692 113.976 333.69 118.476 333.69 122.976C333.69 129.268 333.69 135.56 333.69 141.851C333.69 142.2 333.805 142.628 333.648 142.882C333.419 143.247 333.021 143.637 332.633 143.713C332.425 143.755 331.875 143.178 331.854 142.856C331.762 141.531 331.817 140.194 331.817 138.862C331.599 138.73 331.382 138.599 331.164 138.468V138.463ZM322.066 120.913C319.071 120.616 316.548 121.959 314.927 124.408C312.011 128.822 311.898 133.561 314.555 138.174C316.407 141.392 319.375 142.546 323.042 142.289C326.168 142.072 328.463 140.574 329.981 137.973C331.673 135.075 332.121 131.998 331.389 128.591C330.537 124.631 326.939 120.475 322.066 120.913Z" fill="#482F92"/>
<path d="M246.698 119.056C251.943 118.812 255.494 121.4 257.495 126.006C258.819 129.05 258.693 132.352 257.954 135.607C257.393 138.075 256.071 140.044 254.183 141.644C252.685 142.914 251.007 143.816 248.985 144.047C245.767 144.414 242.711 144.267 239.908 142.323C237.867 140.907 236.506 139.048 235.554 136.811C234.379 134.047 234.356 131.075 234.954 128.316C236.081 123.121 240.086 118.644 246.698 119.053V119.056ZM256.037 131.513C256.212 129.572 255.795 127.668 254.872 125.825C251.801 119.688 243.044 119.064 239.163 124.563C236.732 128.012 236.501 131.794 237.686 135.741C239.803 142.803 248.358 144.325 252.992 139.871C255.318 137.637 256.252 134.818 256.039 131.51L256.037 131.513Z" fill="#482F92"/>
<path d="M279.265 139.486C278.484 140.393 277.791 141.4 276.908 142.19C274.629 144.225 271.88 144.372 268.977 144.102C266.603 143.881 264.755 142.819 263.74 140.81C262.898 139.15 262.237 137.225 262.153 135.387C261.93 130.545 262.064 125.688 262.056 120.839C262.056 120.176 261.959 119.486 262.997 119.515C263.934 119.541 264.398 119.793 264.385 120.884C264.33 125.515 264.269 130.149 264.424 134.778C264.474 136.281 265.03 137.823 265.617 139.237C266.488 141.324 268.25 142.14 270.49 142.292C274.432 142.56 277.301 141.054 278.738 137.362C279.307 135.901 279.528 134.238 279.575 132.657C279.69 128.77 279.627 124.881 279.606 120.991C279.601 120.16 279.667 119.523 280.737 119.509C281.817 119.496 281.896 120.142 281.893 120.973C281.88 128.051 281.88 135.13 281.893 142.211C281.893 143.029 281.82 143.724 280.787 143.769C279.693 143.816 279.648 143.095 279.672 142.282C279.698 141.385 279.677 140.485 279.677 139.586L279.263 139.486H279.265Z" fill="#482F92"/>
<path d="M289.087 123.769C290.364 121.933 291.709 120.042 293.962 119.512C300.089 118.067 305.68 119.231 306.267 127.173C306.645 132.258 306.367 137.39 306.385 142.502C306.385 143.155 306.349 143.75 305.468 143.774C304.523 143.8 304.437 143.197 304.439 142.473C304.447 139.591 304.505 136.703 304.424 133.824C304.353 131.348 304.274 128.856 303.92 126.412C303.495 123.47 301.303 120.92 297.752 120.844C293.918 120.76 291.161 122.156 289.609 125.641C289.11 126.761 288.783 128.046 288.748 129.266C288.633 133.588 288.667 137.915 288.672 142.24C288.672 143.142 288.528 143.829 287.411 143.755C286.417 143.69 286.417 142.992 286.417 142.25C286.425 135.872 286.422 129.494 286.422 123.113C286.422 122.282 286.323 121.434 286.467 120.629C286.543 120.212 286.997 119.646 287.382 119.546C288.09 119.365 288.484 119.853 288.51 120.611C288.544 121.636 288.615 122.662 288.67 123.685C288.809 123.711 288.945 123.737 289.084 123.763L289.087 123.769Z" fill="#482F92"/>
<path d="M222.995 124.346C224.073 122.274 225.337 120.233 227.668 119.601C229.336 119.148 231.206 119.124 232.934 119.331C234.01 119.46 233.49 120.627 233.365 121.476C232.958 121.442 232.588 121.497 232.292 121.374C228.919 119.966 224.951 122.442 223.8 125.46C223.178 127.091 222.74 128.877 222.662 130.611C222.491 134.49 222.596 138.382 222.599 142.268C222.599 143.047 222.646 143.803 221.513 143.779C220.419 143.755 220.291 143.089 220.293 142.195C220.312 135.119 220.307 128.046 220.301 120.97C220.301 120.231 220.291 119.507 221.311 119.509C222.284 119.509 222.386 120.207 222.42 120.955C222.47 122.066 222.531 123.176 222.588 124.285C222.725 124.304 222.858 124.325 222.995 124.343V124.346Z" fill="#482F92"/>
<path d="M342.407 73.7398C348.589 73.1786 352.848 78.6467 352.995 83.3596C353.194 89.722 348.216 94.2591 342.57 94.2329C336.04 94.2014 332.051 89.4204 331.99 83.8683C331.935 78.7149 335.94 73.454 342.407 73.7425V73.7398ZM333.504 83.9339C332.782 89.625 338.072 93.3858 342.462 93.3727C348.014 93.3569 351.82 89.124 351.78 83.8395C351.739 78.0881 347.805 74.4034 342.51 74.3299C338.043 74.267 332.979 77.6239 333.504 83.9339Z" fill="#F47922"/>
<path d="M346.614 89.7192C345.649 90.11 345.324 89.8136 345.226 88.9351C345.106 87.8204 344.964 86.6875 344.636 85.6227C344.156 84.0675 341.476 83.2388 340.22 84.2275C339.9 84.4793 339.685 85.0248 339.653 85.4522C339.572 86.538 339.638 87.6342 339.609 88.7252C339.598 89.116 339.478 89.5015 339.41 89.8897C339.271 89.8949 339.129 89.9002 338.99 89.9054C338.89 89.5435 338.704 89.1842 338.701 88.8223C338.678 85.5467 338.701 82.271 338.678 78.9954C338.67 78.0067 339.103 77.4743 340.076 77.5451C341.762 77.6683 343.461 77.7628 345.116 78.0696C346.64 78.3528 347.128 81.4108 345.819 82.5962C345.059 83.286 345.077 83.7161 345.455 84.6759C346.076 86.26 346.252 88.0171 346.616 89.714L346.614 89.7192ZM342.184 78.324C341.067 78.6046 339.74 77.9778 339.685 79.3862C339.564 82.4782 338.922 83.543 343.042 83.0316C343.257 83.0053 343.543 83.0499 343.677 82.9319C344.222 82.4467 344.956 81.993 345.185 81.3688C345.494 80.5139 345.358 79.4806 344.345 79.0137C343.582 78.6623 342.738 78.4945 342.184 78.324Z" fill="#F47922"/>
</g>
<defs>
<clipPath id="clip0_82_2449">
<rect width="353" height="144.742" fill="white"/>
</clipPath>
</defs>
</svg>
