<svg width="23" height="23" viewBox="0 0 23 23" fill="none" xmlns="http://www.w3.org/2000/svg">
<g clip-path="url(#clip0_2026_1473)">
<path d="M11.3623 15.3276C13.3565 15.3276 14.9731 13.711 14.9731 11.7168C14.9731 9.72258 13.3565 8.10596 11.3623 8.10596C9.36809 8.10596 7.75146 9.72258 7.75146 11.7168C7.75146 13.711 9.36809 15.3276 11.3623 15.3276Z" fill="white"/>
<path d="M16.3278 0.432129H6.39805C4.72274 0.434026 3.1166 1.10038 1.93197 2.285C0.747353 3.46962 0.0809989 5.07577 0.0791016 6.75108V16.6809C0.0809989 18.3562 0.747353 19.9623 1.93197 21.1469C3.1166 22.3315 4.72274 22.9979 6.39805 22.9998H16.3278C18.0031 22.9979 19.6093 22.3315 20.7939 21.1469C21.9785 19.9623 22.6449 18.3562 22.6468 16.6809V6.75108C22.6449 5.07577 21.9785 3.46962 20.7939 2.285C19.6093 1.10038 18.0031 0.434026 16.3278 0.432129ZM11.3629 17.1322C10.2917 17.1322 9.24453 16.8145 8.35384 16.2194C7.46314 15.6243 6.76893 14.7784 6.35898 13.7887C5.94904 12.799 5.84178 11.71 6.05077 10.6593C6.25976 9.60866 6.7756 8.64358 7.53308 7.8861C8.29055 7.12863 9.25563 6.61278 10.3063 6.4038C11.3569 6.19481 12.446 6.30207 13.4356 6.71201C14.4253 7.12195 15.2712 7.81617 15.8664 8.70686C16.4615 9.59756 16.7792 10.6447 16.7792 11.716C16.7776 13.1519 16.2064 14.5286 15.191 15.544C14.1756 16.5594 12.7989 17.1306 11.3629 17.1322ZM17.2305 7.20243C16.9627 7.20243 16.7009 7.12302 16.4783 6.97423C16.2556 6.82544 16.082 6.61397 15.9795 6.36655C15.8771 6.11912 15.8502 5.84687 15.9025 5.58421C15.9547 5.32154 16.0837 5.08027 16.2731 4.8909C16.4624 4.70154 16.7037 4.57257 16.9664 4.52033C17.229 4.46808 17.5013 4.4949 17.7487 4.59738C17.9961 4.69987 18.2076 4.87342 18.3564 5.09609C18.5052 5.31877 18.5846 5.58056 18.5846 5.84837C18.5846 6.20749 18.4419 6.5519 18.188 6.80584C17.9341 7.05977 17.5897 7.20243 17.2305 7.20243Z" fill="white"/>
</g>
<defs>
<clipPath id="clip0_2026_1473">
<rect width="22.5677" height="22.5677" fill="white" transform="translate(0.0791016 0.432129)"/>
</clipPath>
</defs>
</svg>
