<svg width="1013" height="301" viewBox="0 0 1013 301" fill="none" xmlns="http://www.w3.org/2000/svg">
<path d="M878.888 254.616H88.5417C88.5417 253.781 88.5417 253.043 88.5417 252.305C88.5417 183.175 88.5417 114.039 88.5073 44.9085C88.5073 42.9983 88.702 42.0889 91.067 42.0889C352.529 42.1518 613.996 42.1461 875.458 42.1518C879.42 42.1518 878.893 41.7343 878.893 45.6864C878.905 114.679 878.893 183.672 878.888 252.66C878.888 253.22 878.888 253.775 878.888 254.621V254.616ZM483.835 61.5348C359.32 61.5348 234.805 61.5348 110.291 61.5348C108.355 61.5348 107.387 62.509 107.387 64.4574C107.387 96.9206 107.393 129.378 107.393 161.841C107.393 185.588 107.393 209.335 107.393 233.088C107.393 235.627 107.645 235.948 110.147 235.873C113.228 235.787 116.303 235.439 119.384 235.439C364.823 235.416 610.268 235.421 855.707 235.421C856.269 235.421 856.841 235.387 857.397 235.45C860.088 235.765 860.088 235.776 860.088 233.128C860.088 177.484 860.077 121.834 860.077 66.1904C860.077 63.0905 858.548 61.5405 855.49 61.5405C731.61 61.5405 607.726 61.5405 483.846 61.5405L483.835 61.5348Z" fill="black"/>
<path d="M896.325 234.003C896.657 226.705 899.491 221.861 905.195 219.425C909.908 217.411 916.705 218.698 920.456 223.531C922.586 226.276 923.548 229.308 924.035 232.573C924.693 236.977 920.032 244.338 915.938 246.226C908.115 249.829 900.883 245.825 897.779 239.379C896.846 237.441 896.622 235.159 896.325 233.998V234.003ZM909.891 245.345C916.459 245.871 921.687 239.357 921.916 233.677C922.202 226.722 917.157 220.637 910.211 220.648C903.855 220.66 898.587 226.162 898.26 231.944C897.854 239.059 903.969 245.997 909.891 245.339V245.345Z" fill="black"/>
<path d="M483.835 61.535C607.714 61.535 731.599 61.535 855.478 61.535C858.536 61.535 860.065 63.085 860.065 66.1849C860.065 121.829 860.076 177.478 860.076 233.122C860.076 235.765 860.076 235.753 857.385 235.444C856.83 235.382 856.263 235.416 855.696 235.416C610.257 235.416 364.812 235.416 119.373 235.433C116.292 235.433 113.217 235.776 110.136 235.868C107.633 235.942 107.381 235.622 107.381 233.082C107.381 209.335 107.381 185.589 107.381 161.836C107.381 129.373 107.381 96.9152 107.376 64.4519C107.376 62.4997 108.343 61.5255 110.279 61.5293C234.794 61.5293 359.309 61.5293 483.823 61.5293L483.835 61.535ZM419.545 90.1606C334.216 90.1548 248.887 90.1434 163.563 90.1949C159.595 90.1949 155.569 90.4408 151.675 91.15C147.289 91.945 143.429 94.004 141.047 98.0934C138.275 102.852 139.003 107.799 140.526 112.649C142.209 118.025 145.084 122.83 148.549 127.279C153.616 133.794 159.641 139.267 166.793 143.357C170.24 145.33 173.957 146.954 177.719 148.23C180.032 149.013 182.832 149.522 185.123 148.962C189.109 147.989 193.1 147.886 197.086 147.823C203.43 147.72 209.81 148.441 216.132 148.064C219.871 147.841 222.087 149.282 224.332 151.77C230.906 159.062 237.565 166.286 244.237 173.486C247.043 176.518 250.026 179.389 252.832 182.426C255.924 185.777 258.896 189.232 261.92 192.641C265.808 197.022 269.513 201.597 273.67 205.715C276.081 208.106 279.007 210.233 282.094 211.595C284.516 212.658 287.54 212.63 290.3 212.63C458.988 212.67 627.671 212.664 796.359 212.664C796.92 212.664 797.493 212.636 798.042 212.721C805.069 213.785 812.078 214.271 818.904 211.698C824.693 209.518 828.169 205.229 829.206 199.309C829.675 196.638 829.664 194.128 829.217 191.457C828.524 187.339 827.74 183.301 825.85 179.532C821.664 171.176 816 164.021 808.316 158.639C804.41 155.905 800.098 154.166 795.151 154.189C779.603 154.263 764.056 154.229 748.515 154.178C747.644 154.178 746.511 153.88 745.944 153.291C742.055 149.282 738.253 145.181 734.479 141.057C726.732 132.587 719.018 124.082 711.287 115.6C705.887 109.669 700.442 103.778 695.076 97.8188C690.69 92.9516 685.862 90.0119 678.716 90.029C592.333 90.2406 505.95 90.1663 419.568 90.1663L419.545 90.1606Z" fill="#FEE600"/>
<path d="M419.545 90.1603C505.927 90.1603 592.31 90.2346 678.693 90.023C685.833 90.0059 690.661 92.9456 695.053 97.8128C700.424 103.772 705.864 109.663 711.264 115.594C718.995 124.076 726.709 132.581 734.456 141.051C738.23 145.175 742.032 149.27 745.921 153.285C746.488 153.874 747.621 154.166 748.492 154.172C764.039 154.223 779.586 154.257 795.128 154.183C800.081 154.16 804.393 155.893 808.293 158.633C815.977 164.02 821.641 171.17 825.827 179.526C827.717 183.295 828.495 187.333 829.194 191.451C829.646 194.122 829.652 196.638 829.182 199.303C828.14 205.229 824.67 209.513 818.881 211.692C812.049 214.26 805.046 213.779 798.019 212.715C797.47 212.63 796.897 212.658 796.336 212.658C627.648 212.658 458.965 212.658 290.277 212.624C287.522 212.624 284.499 212.652 282.071 211.589C278.984 210.233 276.052 208.1 273.647 205.709C269.49 201.591 265.791 197.021 261.897 192.635C258.868 189.226 255.896 185.766 252.809 182.42C250.009 179.383 247.025 176.512 244.214 173.48C237.542 166.274 230.883 159.056 224.309 151.764C222.07 149.276 219.854 147.835 216.109 148.058C209.787 148.435 203.413 147.715 197.063 147.817C193.083 147.88 189.086 147.983 185.1 148.956C182.81 149.516 180.009 149.007 177.696 148.224C173.934 146.942 170.217 145.324 166.77 143.351C159.618 139.256 153.593 133.788 148.526 127.273C145.067 122.824 142.192 118.019 140.503 112.643C138.985 107.793 138.252 102.846 141.024 98.0874C143.406 93.998 147.266 91.939 151.652 91.144C155.546 90.4348 159.572 90.1946 163.54 90.1889C248.869 90.1374 334.198 90.1489 419.522 90.1489L419.545 90.1603ZM193.484 109.835C194.354 112.649 196.742 114.548 199.198 114.548C222.064 114.548 244.924 114.548 267.789 114.548C268.282 114.548 268.854 114.393 269.25 114.588C269.885 114.902 270.756 115.36 270.899 115.915C271.225 117.173 270.194 117.367 269.198 117.373C268.706 117.373 268.213 117.385 267.721 117.385C246.264 117.385 224.807 117.379 203.356 117.373C202.863 117.373 202.365 117.316 201.878 117.379C200.802 117.522 200.59 118.071 201.266 118.923C202.211 120.107 203.419 120.45 204.942 120.45C225.975 120.404 247.008 120.416 268.041 120.416C268.746 120.416 269.519 120.301 270.12 120.559C270.544 120.736 270.933 121.445 270.962 121.943C270.985 122.338 270.526 122.938 270.126 123.127C269.656 123.35 269.026 123.247 268.465 123.247C248.274 123.247 228.088 123.247 207.897 123.247C207.307 123.247 206.717 123.321 205.904 123.379C206.173 123.979 206.271 124.374 206.494 124.665C207.777 126.347 209.58 125.826 211.304 125.821C230.155 125.798 249.012 125.804 267.864 125.821C268.614 125.821 269.501 125.849 270.074 126.232C270.572 126.564 270.91 127.416 270.933 128.057C270.945 128.377 270.16 128.846 269.656 129.046C269.227 129.212 268.683 129.092 268.19 129.092C249.831 129.092 231.467 129.092 213.108 129.092C212.587 129.092 212.066 129.184 211.401 129.247C212.14 130.94 213.171 131.603 214.866 131.592C222.602 131.534 230.344 131.569 238.081 131.569C248.354 131.569 258.621 131.563 268.894 131.569C270.813 131.569 271.752 132.684 270.87 134.085C270.521 134.64 269.353 134.915 268.557 134.92C252.941 134.966 237.325 134.949 221.703 134.943C220.174 134.943 218.645 134.943 217.116 134.943C217.03 135.132 216.945 135.326 216.859 135.515C217.3 135.852 217.695 136.367 218.181 136.482C218.914 136.653 219.716 136.545 220.495 136.545C236.603 136.545 252.712 136.545 268.826 136.545C269.96 136.545 271.156 136.362 271.093 138.152C271.036 139.816 269.971 139.805 268.768 139.799C261.943 139.776 255.122 139.776 248.297 139.776C239.335 139.776 230.373 139.776 221.022 139.776C222.196 141.194 222.963 142.35 225.013 142.338C240.257 142.252 255.495 142.293 270.738 142.298C271.471 144.963 271.013 145.621 268.282 145.661C265.327 145.701 262.372 145.678 259.417 145.678C250.06 145.678 240.703 145.701 231.346 145.656C229.812 145.65 228.283 145.358 226.542 145.181C227.533 147.474 228.758 148.401 231.123 148.378C243.715 148.246 256.308 148.321 268.9 148.315C270.017 148.315 271.042 148.332 271.013 149.916C270.985 151.358 270.166 151.655 268.946 151.655C256.743 151.644 244.534 151.649 232.349 151.649C232.629 153.474 235.338 155.968 237.227 155.973C240.955 155.99 244.683 155.973 248.411 155.973C255.237 155.973 262.057 155.962 268.883 155.99C270.704 155.996 271.643 157.117 270.819 158.41C270.452 158.982 269.318 159.319 268.534 159.325C259.532 159.388 250.524 159.359 241.522 159.365C240.824 159.365 240.125 159.456 239.031 159.525C240.434 161.006 241.597 162.024 242.507 163.237C243.801 164.958 245.359 165.525 247.518 165.479C254.481 165.342 261.444 165.41 268.408 165.422C269.639 165.422 270.973 165.553 270.933 167.206C270.893 168.871 269.501 168.636 268.402 168.642C263.265 168.647 258.129 168.63 252.998 168.625C251.435 168.625 249.866 168.625 247.695 168.625C249.236 170.443 250.364 171.702 251.406 173.023C253.662 175.882 256.239 177.633 260.23 177.038C263.117 176.609 266.129 176.883 269.078 177.044C269.731 177.078 270.338 177.964 270.967 178.456C270.366 178.885 269.822 179.469 269.152 179.692C268.522 179.903 267.761 179.743 267.056 179.743C264.21 179.743 261.364 179.743 258.438 179.743C259.354 182.494 262.029 184.605 264.342 184.61C266.031 184.61 267.721 184.65 269.404 184.61C270.721 184.576 271.111 185.251 271.093 186.44C271.076 187.613 270.515 188.053 269.387 188.036C268.316 188.025 267.245 188.122 266.077 188.173C266.249 188.597 266.272 188.74 266.352 188.848C268.379 191.605 270.486 193.91 274.535 193.264C277.209 192.84 280.009 193.166 282.752 193.166C446.167 193.178 609.581 193.189 773.001 193.189C773.505 193.189 774.009 193.035 774.587 192.943C773.951 190.942 772.463 191.319 771.208 191.319C747.077 191.302 722.952 191.308 698.821 191.302C697.67 191.302 696.353 191.628 696.301 189.695C696.25 187.619 697.619 187.979 698.861 187.985C721.933 187.99 745.01 187.996 768.082 187.985C768.597 187.985 769.118 187.865 769.685 187.796C768.861 185.977 767.635 185.462 765.803 185.468C744.277 185.531 722.752 185.514 701.226 185.52C699.697 185.52 698.168 185.52 696.685 185.52C695.975 182.637 696.256 182.26 698.97 182.242C699.462 182.242 699.955 182.242 700.447 182.242C721.801 182.242 743.155 182.242 764.64 182.242C763.856 180.264 762.47 179.583 760.34 179.589C739.799 179.646 719.259 179.629 698.718 179.623C697.974 179.623 697.229 179.56 696.467 179.526C696.33 177.964 695.86 176.46 698.014 176.386C699.525 176.334 701.043 176.369 702.56 176.369C720.009 176.369 737.451 176.369 754.9 176.374C755.392 176.374 755.885 176.432 756.377 176.397C757.202 176.34 758.026 176.231 758.845 176.146C757.935 175.333 757.047 174.487 756.085 173.732C755.867 173.56 755.404 173.709 755.049 173.709C737.6 173.709 720.158 173.709 702.709 173.709C701.089 173.709 699.474 173.663 697.853 173.721C696.605 173.761 696.319 173.114 696.301 172.028C696.267 170.106 697.613 170.392 698.787 170.392C716.304 170.392 733.821 170.403 751.338 170.403C751.996 170.403 752.649 170.329 753.308 170.283C753.354 170.032 753.394 169.774 753.439 169.523C752.409 169.231 751.378 168.688 750.341 168.682C733.036 168.619 715.731 168.625 698.426 168.625C697.292 168.625 696.324 168.625 696.301 167.057C696.273 165.508 697.189 165.393 698.357 165.399C714.666 165.496 730.975 165.582 747.278 165.639C747.736 165.639 748.194 165.279 748.744 165.044C747.753 163.986 746.86 163.208 746.184 162.27C744.38 159.765 742.004 159.251 738.997 159.285C725.563 159.445 712.123 159.342 698.689 159.376C697.149 159.376 696.061 159.256 696.313 157.266C696.525 155.602 697.716 155.979 698.689 155.979C711.705 155.962 724.716 155.968 737.732 155.962C738.448 155.962 739.158 155.882 739.708 155.853C739.152 155.15 738.608 154.595 738.224 153.949C737.033 151.941 735.275 151.581 733.048 151.604C721.583 151.707 710.114 151.638 698.649 151.661C697.338 151.661 696.284 151.672 696.296 149.876C696.307 148.058 697.492 148.332 698.598 148.332C709.151 148.332 719.7 148.332 730.253 148.315C730.969 148.315 731.691 148.252 732.59 148.206C730.774 145.501 730.196 145.124 727.47 145.204C724.109 145.301 720.747 145.656 717.392 145.644C711.087 145.621 704.776 145.324 698.472 145.335C696.903 145.335 695.912 144.929 695.872 143.476C695.86 143.105 697.401 142.35 698.231 142.344C706.952 142.27 715.674 142.31 724.401 142.31C725.071 142.31 725.735 142.247 726.531 142.207C725.907 140.411 724.819 139.77 723.135 139.776C714.878 139.81 706.615 139.765 698.357 139.805C696.966 139.81 695.86 139.37 695.746 137.992C695.603 136.241 697.103 136.55 698.174 136.55C705.28 136.533 712.387 136.55 719.488 136.539C720.192 136.539 720.896 136.447 721.601 136.396C721.629 136.138 721.652 135.881 721.681 135.624C720.828 135.395 719.98 134.977 719.127 134.972C712.095 134.92 705.057 134.937 698.025 134.949C696.714 134.949 695.471 134.84 695.74 133.084C695.929 131.86 696.868 131.529 698.077 131.54C703.562 131.586 709.048 131.563 714.54 131.557C715.25 131.557 715.96 131.494 716.819 131.449C715.972 129.544 714.826 128.989 713.057 129.035C707.926 129.155 702.784 129.132 697.653 129.029C697 129.018 696.364 128.183 695.723 127.731C696.313 127.085 696.885 125.906 697.492 125.884C701.352 125.746 705.223 125.884 709.089 125.901C709.902 125.901 710.721 125.815 711.534 125.769C710.984 125.037 710.531 124.196 709.85 123.619C709.449 123.276 708.688 123.258 708.086 123.253C704.782 123.218 701.472 123.23 698.168 123.23C697.229 123.23 696.341 123.327 696.313 121.909C696.284 120.45 697.08 120.376 698.191 120.393C700.911 120.439 703.631 120.41 706.374 120.41C705.985 118.059 705.103 117.013 696.542 117.413V114.479H701.146C699.863 111.368 697.51 109.703 694.652 109.709C689.378 109.721 684.098 109.715 678.824 109.715C517.729 109.715 356.634 109.715 195.539 109.715C194.869 109.715 194.199 109.778 193.484 109.812V109.835ZM184.178 100.449C185.18 101.342 186.011 101.776 186.366 102.451C188.112 105.786 190.907 106.295 194.405 106.295C360.54 106.232 526.68 106.243 692.814 106.243C693.278 106.243 693.742 106.157 694.612 106.072C693.329 104.596 692.276 103.366 691.211 102.16C690.123 100.924 688.932 100.123 687.093 100.261C684.574 100.449 682.031 100.312 679.5 100.312C515.124 100.312 350.742 100.301 186.366 100.301C185.816 100.301 185.272 100.375 184.178 100.449ZM787.368 206.973C786.83 204.622 783.87 202.329 781.401 202.329C750.668 202.329 719.929 202.329 689.195 202.329C553.096 202.323 417.002 202.312 280.903 202.312C280.301 202.312 279.706 202.409 278.681 202.495C282.059 205.823 285.484 207.402 290.031 207.385C387.769 207.093 485.501 206.87 583.239 206.744C650.129 206.653 717.014 206.721 783.904 206.733C785.009 206.733 786.114 206.882 787.374 206.973H787.368ZM273.516 196.467C275.211 198.972 275.348 199.057 277.593 199.063C280.971 199.069 284.344 199.063 287.723 199.063C369.101 199.063 450.479 199.063 531.862 199.063C613.876 199.063 695.883 199.046 777.897 199.029C778.538 199.029 779.185 198.949 780.021 198.897C779.145 197.17 778.212 196.438 776.448 196.438C612.003 196.472 447.558 196.467 283.107 196.467C280.032 196.467 276.952 196.467 273.521 196.467H273.516ZM684.121 96.9778C684.15 96.6976 684.173 96.4173 684.201 96.1371C682.93 95.9083 681.665 95.485 680.393 95.485C516.979 95.4564 353.565 95.4564 190.151 95.4564C187.477 95.4564 184.802 95.4278 182.134 95.485C181.687 95.4965 181.246 95.8797 180.8 96.0913C181.258 96.3944 181.687 96.7547 182.18 96.9664C182.477 97.0922 182.872 96.9778 183.222 96.9778C349.379 96.9778 515.536 96.9778 681.699 96.9778H684.121ZM148.411 117.27C149.78 119.341 150.908 120.953 151.933 122.624C153.364 124.94 155.185 125.912 158.094 125.815C165.453 125.558 172.828 125.729 180.198 125.723C180.851 125.723 181.498 125.643 182.517 125.58C180.427 123.15 178.612 121.056 176.82 118.946C175.766 117.705 174.523 117.219 172.834 117.242C166.661 117.345 160.482 117.276 154.309 117.276C152.517 117.276 150.719 117.276 148.405 117.276L148.411 117.27ZM801.117 181.367C801.266 182.025 801.238 182.437 801.427 182.649C805.057 186.624 808.539 190.81 813.257 193.538C815.296 194.716 817.672 195.46 819.986 195.98C822.082 196.449 824.138 193.207 823.462 190.747C822.752 188.162 822.088 185.56 821.166 183.049C820.902 182.334 819.837 181.453 819.121 181.442C813.229 181.31 807.336 181.367 801.112 181.367H801.117ZM158.209 128.989C158.14 129.201 158.071 129.407 158.008 129.618C160.282 131.523 162.504 133.485 164.852 135.292C165.636 135.893 166.736 136.384 167.698 136.402C173.876 136.493 180.055 136.442 186.234 136.436C187.511 136.436 188.129 136.007 187.465 134.64C186.892 133.468 186.24 132.306 185.873 131.065C185.352 129.287 184.195 128.966 182.546 128.978C175.594 129.035 168.642 128.995 161.691 128.989C160.528 128.989 159.366 128.989 158.203 128.989H158.209ZM787.328 160.091H752.254C753.102 161.155 753.663 161.841 754.195 162.545C755.908 164.804 758.072 165.588 760.993 165.496C768.299 165.267 775.618 165.393 782.93 165.416C787.689 165.433 787.689 165.462 787.546 160.675C787.546 160.612 787.5 160.549 787.328 160.091ZM170.469 113.707C169.725 113.004 169.347 112.552 168.883 112.22C165.132 109.555 161.261 107.067 156.8 105.774C154.687 105.162 152.46 104.722 150.272 104.659C148.674 104.613 146.647 105.042 146.264 106.964C145.932 108.611 146.212 110.424 146.476 112.128C146.676 113.415 147.575 113.942 149.052 113.919C155.5 113.821 161.954 113.884 168.408 113.873C168.934 113.873 169.461 113.787 170.475 113.701L170.469 113.707ZM811.677 169.454C811.03 168.539 810.789 167.933 810.343 167.618C806.884 165.187 803.545 162.516 799.846 160.509C796.061 158.461 793.467 160.309 793.507 164.518C793.518 165.427 793.398 166.405 793.685 167.229C794.005 168.167 794.057 169.482 795.666 169.471C800.785 169.425 805.91 169.454 811.671 169.454H811.677ZM191.519 129.012C192.252 131.077 193.014 132.753 193.426 134.514C193.764 135.955 194.428 136.476 195.86 136.459C199.788 136.413 203.717 136.459 207.639 136.447C208.149 136.447 208.658 136.281 209.689 136.104C207.948 134.314 206.586 132.833 205.137 131.437C204.221 130.556 203.23 129.207 202.176 129.115C198.775 128.818 195.333 129.006 191.514 129.006L191.519 129.012ZM796.118 172.851C796.565 176.449 798.174 177.97 801.261 177.976C806.18 177.987 811.104 177.993 816.023 177.976C816.659 177.976 817.289 177.873 818.062 177.804C817.638 177.003 817.466 176.449 817.117 176.048C816.166 174.95 815.187 173.04 814.139 172.988C808.19 172.691 802.211 172.845 796.113 172.845L796.118 172.851ZM790.936 176.963C790.489 174.922 789.985 173.652 787.597 173.703C780.64 173.858 773.677 173.749 766.719 173.761C766.278 173.761 765.843 173.904 765.316 173.995C766.473 176.174 767.927 177.158 770.39 177.038C774.948 176.82 779.529 176.969 784.099 176.963C786.326 176.963 788.548 176.963 790.942 176.963H790.936ZM199.828 125.609C197.4 123.001 195.35 120.759 193.249 118.568C192.751 118.048 192.081 117.385 191.456 117.35C189.04 117.207 186.612 117.293 183.623 117.293C185.782 120.301 187.665 122.932 189.555 125.558C189.584 125.603 189.687 125.609 189.756 125.609C192.997 125.609 196.244 125.609 199.834 125.609H199.828ZM790.426 200.585C791.102 202.352 791.995 203.118 793.524 203.021C795.82 202.884 798.123 202.632 800.419 202.644C803.866 202.661 807.313 202.912 810.761 202.975C812.209 202.998 813.664 202.684 815.113 202.701C816.991 202.729 818.869 203.01 820.748 203.021C821.246 203.021 821.75 202.443 822.5 201.974C811.58 199.784 801.117 200.991 790.438 200.579L790.426 200.585ZM770.659 179.64C771.707 181.608 772.915 182.334 774.839 182.3C780.663 182.197 786.492 182.277 792.322 182.265C792.9 182.265 793.478 182.122 794.057 182.042C794.114 181.871 794.177 181.705 794.234 181.533C793.427 180.904 792.637 179.737 791.818 179.72C784.877 179.572 777.937 179.634 770.653 179.634L770.659 179.64ZM798.317 187.985C797.567 186.235 796.731 185.468 795.065 185.491C789.247 185.571 783.423 185.502 777.605 185.514C777.107 185.514 776.608 185.663 775.515 185.834C776.906 186.778 777.782 187.882 778.687 187.899C785.124 188.048 791.566 187.979 798.323 187.979L798.317 187.985ZM172.393 139.284C174.735 142.338 183.64 144.186 186.732 142.447C187.952 141.761 188.49 140.777 187.998 139.284H172.393ZM788.141 170.266C788.262 170.003 788.382 169.74 788.502 169.477C787.849 169.197 787.197 168.676 786.538 168.67C778.452 168.619 770.367 168.636 762.281 168.653C761.777 168.653 761.279 168.79 760.775 168.865C760.735 169.105 760.695 169.34 760.655 169.58C761.537 169.854 762.413 170.363 763.3 170.375C771.031 170.443 778.767 170.42 786.498 170.415C787.048 170.415 787.597 170.318 788.141 170.266ZM189 113.804C186.726 111.379 185.226 108.857 181.63 109.412C180.038 109.658 178.337 109.143 176.682 109.103C176.367 109.097 176.041 109.715 175.72 110.041C177.232 111.293 178.578 113.244 180.284 113.644C182.907 114.256 185.776 113.804 189 113.804ZM217.197 144.855C217.277 144.66 217.357 144.472 217.437 144.277C216.698 143.94 215.96 143.311 215.221 143.305C208.424 143.236 201.632 143.242 194.835 143.316C194.142 143.322 193.455 143.94 192.768 144.277C192.836 144.472 192.911 144.66 192.98 144.855H217.197ZM803.78 192.595C802.337 192.068 801.301 191.388 800.247 191.365C794.641 191.256 789.029 191.313 783.417 191.331C782.862 191.331 782.306 191.456 781.751 191.519C781.711 191.765 781.676 192.017 781.636 192.263C782.535 192.583 783.423 193.155 784.328 193.184C790.34 193.372 796.353 193.452 802.366 193.527C802.687 193.527 803.007 193.121 803.78 192.595ZM816.808 205.978H795.878C802.423 208.226 812.055 208.254 816.808 205.978ZM167.446 103.721C171.574 107.782 176.522 105.58 181.229 105.969C180.542 105.019 179.757 103.853 178.91 103.807C175.096 103.601 171.271 103.715 167.446 103.715V103.721ZM152.964 96.6861H169.896C164.353 96.1599 158.804 94.6271 152.964 96.6861ZM787.082 196.667C787.082 196.798 787.082 196.936 787.082 197.067H807.474C807.474 196.936 807.474 196.798 807.474 196.667H787.082ZM212.123 139.736C212.123 139.633 212.123 139.53 212.123 139.427H195.568C195.568 139.53 195.568 139.633 195.568 139.736H212.123Z" fill="black"/>
<path d="M904.834 225.052C907.365 225.052 909.85 224.818 912.261 225.149C913.515 225.327 915.308 226.276 915.651 227.283C916.115 228.65 915.869 230.697 915.096 231.927C914.225 233.305 914.38 233.911 915.096 235.233C915.789 236.508 915.657 238.247 915.754 239.791C915.766 239.963 914.838 240.409 914.414 240.334C914.031 240.266 913.544 239.705 913.458 239.288C913.24 238.281 913.487 237.12 913.086 236.228C912.399 234.701 909.484 233.797 908.001 234.575C907.56 234.809 907.291 235.65 907.228 236.251C907.125 237.143 907.462 238.109 907.256 238.962C907.073 239.699 906.403 240.323 905.945 240.992C905.412 240.289 904.45 239.608 904.422 238.882C904.256 235.044 904.301 231.195 904.336 227.351C904.341 226.665 904.628 225.984 904.845 225.052H904.834ZM909.993 226.368C909.953 226.568 909.908 226.762 909.867 226.962C906.958 226.15 907.182 228.072 907.325 229.691C907.411 230.64 907.72 232.213 908.224 232.344C909.375 232.642 910.795 232.447 911.958 232.036C913.567 231.464 913.905 229.702 913.257 228.547C912.685 227.529 911.122 227.071 909.993 226.368Z" fill="black"/>
<path d="M193.484 109.83C194.199 109.795 194.869 109.732 195.539 109.732C356.634 109.732 517.73 109.732 678.825 109.732C684.099 109.732 689.378 109.732 694.652 109.727C697.51 109.727 699.863 111.385 701.146 114.497H696.542V117.431C705.097 117.03 705.985 118.077 706.374 120.428C703.626 120.428 700.906 120.456 698.191 120.41C697.08 120.393 696.279 120.468 696.313 121.926C696.342 123.344 697.229 123.247 698.168 123.247C701.472 123.247 704.782 123.236 708.086 123.27C708.688 123.276 709.444 123.293 709.85 123.636C710.532 124.214 710.984 125.055 711.534 125.787C710.721 125.832 709.902 125.924 709.089 125.918C705.223 125.895 701.352 125.764 697.493 125.901C696.88 125.924 696.307 127.102 695.723 127.748C696.365 128.2 697 129.035 697.653 129.047C702.784 129.15 707.926 129.178 713.057 129.052C714.832 129.012 715.972 129.561 716.819 131.466C715.96 131.506 715.25 131.569 714.54 131.575C709.054 131.58 703.568 131.603 698.077 131.557C696.874 131.546 695.935 131.878 695.74 133.102C695.465 134.858 696.708 134.966 698.025 134.966C705.057 134.949 712.095 134.938 719.127 134.989C719.98 134.995 720.828 135.412 721.681 135.641C721.652 135.898 721.629 136.156 721.601 136.413C720.896 136.465 720.192 136.556 719.488 136.556C712.381 136.568 705.275 136.55 698.174 136.568C697.103 136.568 695.603 136.265 695.746 138.009C695.861 139.387 696.966 139.828 698.357 139.822C706.615 139.782 714.878 139.822 723.135 139.793C724.819 139.788 725.907 140.428 726.531 142.224C725.741 142.264 725.071 142.327 724.401 142.327C715.68 142.327 706.953 142.281 698.231 142.361C697.401 142.367 695.861 143.122 695.872 143.494C695.912 144.947 696.903 145.358 698.472 145.353C704.777 145.341 711.087 145.633 717.392 145.661C720.753 145.673 724.109 145.318 727.47 145.221C730.196 145.141 730.774 145.518 732.59 148.224C731.691 148.27 730.975 148.332 730.253 148.332C719.7 148.344 709.152 148.344 698.598 148.35C697.493 148.35 696.302 148.075 696.296 149.894C696.284 151.695 697.338 151.684 698.649 151.678C710.114 151.655 721.584 151.724 733.048 151.621C735.275 151.598 737.028 151.959 738.225 153.966C738.608 154.618 739.152 155.173 739.708 155.871C739.158 155.905 738.448 155.979 737.732 155.979C724.716 155.985 711.706 155.979 698.689 155.996C697.71 155.996 696.525 155.619 696.313 157.283C696.055 159.274 697.143 159.399 698.689 159.394C712.124 159.359 725.563 159.462 738.998 159.302C742.004 159.268 744.386 159.783 746.184 162.288C746.86 163.226 747.759 164.004 748.744 165.062C748.194 165.296 747.736 165.656 747.278 165.656C730.969 165.599 714.66 165.513 698.357 165.416C697.183 165.411 696.273 165.525 696.302 167.075C696.33 168.642 697.292 168.642 698.426 168.642C715.731 168.642 733.036 168.642 750.342 168.699C751.372 168.699 752.409 169.248 753.44 169.54C753.394 169.792 753.354 170.049 753.308 170.301C752.649 170.341 751.997 170.421 751.338 170.421C733.821 170.421 716.304 170.415 698.787 170.409C697.613 170.409 696.267 170.123 696.302 172.045C696.319 173.132 696.611 173.778 697.853 173.738C699.468 173.686 701.089 173.727 702.709 173.727C720.158 173.727 737.6 173.727 755.049 173.727C755.398 173.727 755.868 173.578 756.085 173.749C757.041 174.504 757.929 175.351 758.845 176.163C758.021 176.249 757.202 176.357 756.377 176.415C755.89 176.449 755.392 176.392 754.9 176.392C737.451 176.392 720.009 176.386 702.56 176.386C701.043 176.386 699.525 176.352 698.014 176.403C695.861 176.478 696.33 177.982 696.468 179.543C697.229 179.577 697.974 179.64 698.718 179.64C719.259 179.64 739.799 179.663 760.34 179.606C762.47 179.6 763.856 180.281 764.64 182.26C743.155 182.26 721.801 182.26 700.447 182.26C699.955 182.26 699.462 182.26 698.97 182.26C696.25 182.277 695.975 182.649 696.685 185.537C698.168 185.537 699.697 185.537 701.226 185.537C722.752 185.537 744.277 185.554 765.803 185.486C767.635 185.486 768.855 185.995 769.685 187.813C769.113 187.882 768.597 188.002 768.082 188.002C745.01 188.008 721.933 188.002 698.861 188.002C697.619 188.002 696.25 187.636 696.302 189.712C696.353 191.645 697.664 191.319 698.821 191.319C722.952 191.325 747.078 191.319 771.209 191.337C772.463 191.337 773.946 190.959 774.587 192.961C774.009 193.052 773.505 193.207 773.001 193.207C609.587 193.207 446.172 193.195 282.752 193.184C280.01 193.184 277.209 192.852 274.535 193.281C270.492 193.922 268.379 191.617 266.352 188.866C266.272 188.763 266.249 188.62 266.077 188.191C267.245 188.139 268.316 188.042 269.387 188.054C270.515 188.071 271.076 187.63 271.094 186.458C271.111 185.268 270.721 184.593 269.404 184.628C267.715 184.668 266.026 184.633 264.342 184.628C262.029 184.622 259.354 182.506 258.438 179.76C261.37 179.76 264.21 179.76 267.056 179.76C267.761 179.76 268.517 179.921 269.152 179.709C269.822 179.486 270.366 178.897 270.968 178.474C270.338 177.982 269.731 177.101 269.078 177.061C266.134 176.901 263.122 176.626 260.231 177.055C256.239 177.65 253.662 175.9 251.406 173.04C250.364 171.719 249.236 170.461 247.695 168.642C249.866 168.642 251.435 168.642 252.998 168.642C258.135 168.648 263.271 168.665 268.402 168.659C269.502 168.659 270.893 168.888 270.933 167.224C270.973 165.576 269.645 165.445 268.408 165.439C261.445 165.428 254.476 165.359 247.518 165.496C245.359 165.542 243.802 164.97 242.507 163.254C241.597 162.048 240.434 161.024 239.031 159.542C240.119 159.468 240.824 159.382 241.522 159.382C250.524 159.377 259.532 159.399 268.534 159.342C269.324 159.342 270.458 158.999 270.819 158.427C271.643 157.135 270.698 156.014 268.883 156.008C262.057 155.985 255.237 155.991 248.411 155.991C244.683 155.991 240.955 156.008 237.228 155.991C235.344 155.979 232.629 153.491 232.349 151.667C244.54 151.667 256.743 151.667 268.946 151.673C270.166 151.673 270.985 151.375 271.013 149.934C271.042 148.355 270.023 148.332 268.9 148.332C256.308 148.332 243.716 148.264 231.123 148.395C228.758 148.418 227.533 147.492 226.542 145.198C228.283 145.376 229.812 145.667 231.347 145.673C240.704 145.719 250.06 145.696 259.417 145.696C262.372 145.696 265.327 145.719 268.282 145.679C271.019 145.639 271.471 144.981 270.738 142.316C255.495 142.316 240.257 142.27 225.013 142.361C222.963 142.373 222.196 141.218 221.022 139.799C230.379 139.799 239.341 139.799 248.297 139.799C255.123 139.799 261.943 139.799 268.769 139.822C269.971 139.822 271.036 139.839 271.094 138.175C271.157 136.385 269.96 136.568 268.826 136.568C252.718 136.568 236.609 136.568 220.495 136.568C219.722 136.568 218.92 136.676 218.182 136.505C217.689 136.39 217.294 135.876 216.859 135.538C216.945 135.349 217.031 135.155 217.116 134.966C218.645 134.966 220.174 134.966 221.703 134.966C237.319 134.966 252.935 134.983 268.557 134.943C269.353 134.943 270.521 134.663 270.87 134.108C271.752 132.707 270.813 131.598 268.895 131.592C258.621 131.58 248.354 131.592 238.081 131.592C230.344 131.592 222.602 131.557 214.866 131.615C213.171 131.626 212.14 130.963 211.402 129.27C212.066 129.207 212.587 129.115 213.108 129.115C231.467 129.11 249.831 129.115 268.19 129.115C268.683 129.115 269.227 129.235 269.656 129.07C270.16 128.869 270.95 128.406 270.933 128.08C270.905 127.44 270.572 126.593 270.074 126.256C269.502 125.872 268.614 125.844 267.864 125.844C249.013 125.827 230.155 125.821 211.304 125.844C209.581 125.844 207.777 126.37 206.494 124.688C206.271 124.397 206.173 124.002 205.904 123.402C206.723 123.344 207.313 123.27 207.897 123.27C228.088 123.27 248.274 123.27 268.465 123.27C269.026 123.27 269.662 123.373 270.126 123.15C270.527 122.961 270.985 122.355 270.962 121.966C270.933 121.468 270.538 120.759 270.12 120.582C269.513 120.325 268.74 120.439 268.041 120.439C247.008 120.439 225.975 120.428 204.942 120.473C203.419 120.473 202.211 120.13 201.266 118.946C200.584 118.094 200.802 117.545 201.879 117.402C202.36 117.339 202.863 117.396 203.356 117.396C224.813 117.396 246.27 117.402 267.721 117.408C268.213 117.408 268.706 117.402 269.198 117.396C270.2 117.396 271.225 117.196 270.899 115.938C270.756 115.383 269.885 114.925 269.25 114.611C268.854 114.416 268.282 114.571 267.789 114.571C244.924 114.571 222.064 114.571 199.199 114.571C196.736 114.571 194.354 112.672 193.484 109.858V109.83ZM613.83 151.324C613.658 151.169 613.183 150.923 612.982 150.534C610.938 146.651 608.922 142.75 606.918 138.838C603.677 132.507 600.43 126.181 597.258 119.816C596.605 118.512 595.78 117.997 594.32 118.025C590.243 118.105 586.16 118.111 582.083 118.025C580.474 117.991 579.861 118.454 579.867 120.164C579.918 140.954 579.918 161.75 579.872 182.54C579.872 184.164 580.331 184.799 582.02 184.765C586.24 184.679 590.461 184.691 594.681 184.771C596.376 184.805 596.88 184.113 596.84 182.511C596.76 179.143 596.897 175.768 596.8 172.4C596.616 166.251 596.324 160.109 596.09 153.96C596.055 153.12 596.09 152.273 596.09 151.432C597.498 152.942 598.455 154.452 599.273 156.031C601.501 160.309 603.677 164.61 605.859 168.911C608.224 173.572 610.589 178.239 612.925 182.918C613.544 184.153 614.334 184.805 615.84 184.776C620.06 184.685 624.281 184.691 628.495 184.776C630.179 184.811 630.666 184.176 630.66 182.557C630.62 161.767 630.62 140.972 630.648 120.182C630.648 118.677 630.207 118.025 628.598 118.054C624.309 118.128 620.02 118.117 615.731 118.043C614.133 118.014 613.664 118.666 613.687 120.176C613.75 124.952 613.687 129.727 613.71 134.503C613.733 140.137 613.79 145.77 613.83 151.324ZM361.158 151.427H361.175C361.175 161.681 361.233 171.942 361.13 182.197C361.107 184.296 361.788 184.811 363.781 184.771C369.479 184.656 375.177 184.862 380.874 184.708C385.896 184.57 390.947 184.382 395.918 183.707C399.061 183.284 401.976 181.699 404.307 179.389C407.863 175.86 408.991 171.261 409.386 166.537C409.586 164.158 409.037 161.699 408.67 159.296C408.063 155.333 406.168 152.113 402.6 150.123C401.495 149.505 401.524 148.95 402.188 148.184C406.574 143.116 408.573 137.46 406.998 130.711C406.093 126.845 404.519 123.579 401.003 121.434C396.868 118.906 392.339 118.071 387.591 118.06C379.643 118.048 371.695 118.128 363.747 118.025C361.702 117.997 361.101 118.626 361.118 120.656C361.21 130.911 361.158 141.172 361.158 151.427ZM490.546 159.439C490.546 160.36 490.546 161.121 490.546 161.876C490.546 168.762 490.581 175.643 490.529 182.529C490.518 184.153 491.096 184.799 492.751 184.771C497.04 184.696 501.335 184.656 505.618 184.771C507.622 184.822 508.304 184.176 508.292 182.128C508.229 161.544 508.241 140.966 508.281 120.382C508.281 118.655 507.72 117.991 505.967 118.025C501.747 118.105 497.527 118.043 493.306 118.054C490.81 118.06 490.535 118.334 490.529 120.856C490.523 126.759 490.5 132.656 490.558 138.558C490.575 140.039 490.197 140.726 488.548 140.68C484.826 140.577 481.092 140.594 477.364 140.663C475.749 140.691 475.142 140.194 475.165 138.478C475.257 132.507 475.165 126.536 475.205 120.565C475.217 118.798 474.558 118.014 472.732 118.043C468.442 118.105 464.148 118.117 459.864 118.025C458.026 117.985 457.431 118.66 457.431 120.49C457.482 141.143 457.482 161.796 457.431 182.449C457.431 184.222 458.055 184.794 459.767 184.765C464.056 184.691 468.351 184.673 472.634 184.776C474.541 184.822 475.245 184.216 475.222 182.243C475.131 175.288 475.188 168.333 475.2 161.378C475.2 160.766 475.268 160.16 475.314 159.434H490.523L490.546 159.439ZM519.951 142.808C520.415 150.958 518.875 160.658 521.612 170.146C522.746 174.081 524.487 177.661 527.401 180.481C531.702 184.633 537.085 186.406 542.989 186.343C546.533 186.309 550.112 186.04 553.617 185.48C558.089 184.771 561.811 182.443 564.606 178.88C569.307 172.88 570.452 165.696 570.584 158.427C570.819 145.713 570.619 132.993 570.676 120.279C570.682 118.454 569.977 118.003 568.294 118.037C564.148 118.123 559.996 118.06 555.844 118.06C553.875 118.06 552.888 119.017 552.884 120.931C552.884 133.576 552.924 146.222 552.85 158.868C552.838 160.778 552.386 162.7 552.019 164.587C551.538 167.063 549.86 168.842 547.564 169.311C544.804 169.872 541.534 170.152 539.759 167.361C538.568 165.491 537.835 162.997 537.806 160.772C537.629 147.354 537.692 133.937 537.743 120.513C537.749 118.746 537.297 117.968 535.367 118.02C531.078 118.134 526.783 118.14 522.494 118.003C520.404 117.934 519.871 118.717 519.9 120.696C520.003 127.582 519.94 134.469 519.94 142.796L519.951 142.808ZM670.212 160.189C670.212 152.816 670.252 145.438 670.178 138.066C670.16 136.385 670.739 135.836 672.377 135.876C676.03 135.956 679.689 135.853 683.348 135.927C684.872 135.956 685.49 135.481 685.461 133.885C685.381 129.321 685.387 124.757 685.439 120.187C685.456 118.666 684.906 118.043 683.348 118.048C668.649 118.077 653.955 118.083 639.255 118.043C637.635 118.043 637.222 118.683 637.245 120.187C637.314 124.751 637.32 129.321 637.234 133.885C637.205 135.435 637.703 135.99 639.284 135.95C642.869 135.853 646.459 136.013 650.044 135.876C651.968 135.801 652.575 136.345 652.563 138.346C652.477 153.028 652.546 167.704 652.483 182.386C652.477 184.244 653.05 184.845 654.9 184.794C659.189 184.679 663.478 184.708 667.767 184.771C669.548 184.799 670.269 184.21 670.246 182.328C670.16 174.956 670.212 167.578 670.212 160.206V160.189ZM324.996 142.55C325.03 142.55 325.071 142.55 325.105 142.55C325.105 135.246 325.105 127.943 325.105 120.639C325.105 118.043 325.008 117.945 322.356 117.94C318.348 117.934 314.339 117.94 310.331 117.94C307.679 117.945 307.428 118.197 307.428 120.816C307.428 131.843 307.439 142.865 307.416 153.892C307.41 157.752 307.433 161.619 307.216 165.468C306.987 169.46 303.11 171.902 299.204 170.821C296.261 170.003 293.633 168.762 291.714 166.274C290.855 165.159 289.979 165.113 288.994 166.263C287.168 168.407 285.306 170.524 283.365 172.56C279.975 176.117 279.941 176.089 283.193 179.486C283.337 179.635 283.451 179.812 283.6 179.955C287.614 183.987 292.281 186.521 298.156 186.384C300.968 186.315 303.808 186.601 306.586 186.281C310.686 185.8 314.494 184.462 317.678 181.579C322.78 176.958 324.452 170.804 324.887 164.433C325.385 157.163 325.002 149.837 325.002 142.533L324.996 142.55ZM325.958 176.929C326.136 181.957 330.511 186.538 335.664 186.281C340.532 186.04 344.603 182.077 344.466 176.815C344.34 171.742 340.412 167.693 335.063 167.761C329.972 167.83 326.199 171.69 325.958 176.929ZM431.438 177.164C432.097 171.994 426.525 167.441 422.437 167.727C416.057 168.179 413.389 171.942 413.12 177.85C412.936 181.911 417.878 186.446 422.259 186.246C426.72 186.04 431.725 182.757 431.438 177.158V177.164Z" fill="#FEE600"/>
<path d="M184.184 100.444C185.272 100.369 185.822 100.295 186.371 100.295C350.748 100.295 515.13 100.295 679.506 100.306C682.037 100.306 684.579 100.444 687.099 100.255C688.937 100.118 690.128 100.918 691.216 102.154C692.287 103.366 693.335 104.59 694.618 106.066C693.747 106.152 693.284 106.237 692.82 106.237C526.685 106.237 360.545 106.226 194.411 106.289C190.912 106.289 188.118 105.78 186.371 102.446C186.016 101.771 185.186 101.336 184.184 100.444Z" fill="#FEE600"/>
<path d="M787.368 206.962C786.109 206.87 785.003 206.721 783.898 206.721C717.008 206.71 650.124 206.641 583.234 206.733C485.496 206.864 387.763 207.087 290.025 207.373C285.478 207.385 282.06 205.812 278.675 202.483C279.7 202.398 280.296 202.3 280.897 202.3C416.996 202.3 553.09 202.312 689.189 202.317C719.923 202.317 750.662 202.317 781.396 202.317C783.87 202.317 786.824 204.605 787.363 206.962H787.368Z" fill="#FEE600"/>
<path d="M273.516 196.455C276.946 196.455 280.027 196.455 283.102 196.455C447.547 196.455 611.992 196.467 776.443 196.427C778.206 196.427 779.14 197.159 780.016 198.886C779.18 198.938 778.538 199.018 777.891 199.018C695.878 199.035 613.87 199.046 531.857 199.052C450.479 199.052 369.101 199.052 287.717 199.052C284.339 199.052 280.966 199.058 277.587 199.052C275.342 199.052 275.205 198.96 273.51 196.455H273.516Z" fill="#FEE600"/>
<path d="M684.121 96.9724H681.699C515.542 96.9724 349.385 96.9724 183.222 96.9724C182.873 96.9724 182.472 97.0867 182.18 96.9609C181.687 96.7493 181.258 96.3833 180.8 96.0858C181.246 95.8742 181.681 95.4853 182.134 95.4796C184.808 95.4224 187.482 95.451 190.151 95.451C353.565 95.451 516.979 95.451 680.394 95.4796C681.665 95.4796 682.93 95.9028 684.202 96.1316C684.173 96.4119 684.15 96.6921 684.121 96.9724Z" fill="#FEE600"/>
<path d="M148.411 117.264C150.725 117.264 152.517 117.264 154.315 117.264C160.488 117.264 166.667 117.333 172.84 117.23C174.529 117.202 175.772 117.693 176.826 118.935C178.618 121.045 180.427 123.133 182.523 125.569C181.504 125.638 180.851 125.712 180.204 125.712C172.834 125.723 165.459 125.546 158.1 125.804C155.191 125.906 153.364 124.934 151.939 122.612C150.908 120.942 149.785 119.329 148.417 117.259L148.411 117.264Z" fill="#FEE600"/>
<path d="M801.118 181.356C807.337 181.356 813.235 181.299 819.127 181.43C819.843 181.448 820.914 182.323 821.172 183.038C822.093 185.548 822.758 188.151 823.468 190.736C824.144 193.195 822.088 196.444 819.992 195.969C817.673 195.449 815.302 194.705 813.263 193.527C808.539 190.799 805.063 186.612 801.433 182.637C801.238 182.426 801.272 182.008 801.123 181.356H801.118Z" fill="#FEE600"/>
<path d="M158.209 128.989C159.371 128.989 160.534 128.989 161.696 128.989C168.648 128.989 175.6 129.035 182.552 128.978C184.201 128.966 185.358 129.287 185.879 131.065C186.24 132.307 186.898 133.468 187.471 134.64C188.135 136.001 187.511 136.43 186.24 136.436C180.061 136.442 173.882 136.493 167.703 136.402C166.741 136.384 165.636 135.893 164.857 135.292C162.509 133.49 160.288 131.523 158.014 129.618C158.083 129.407 158.152 129.201 158.215 128.989H158.209Z" fill="#FEE600"/>
<path d="M787.328 160.097C787.5 160.555 787.546 160.618 787.546 160.681C787.689 165.468 787.689 165.433 782.93 165.422C775.618 165.399 768.299 165.267 760.992 165.502C758.078 165.593 755.913 164.816 754.195 162.551C753.663 161.847 753.096 161.161 752.254 160.097H787.328Z" fill="#FEE600"/>
<path d="M170.469 113.707C169.45 113.799 168.923 113.879 168.402 113.879C161.948 113.884 155.5 113.827 149.047 113.925C147.575 113.947 146.67 113.421 146.47 112.134C146.206 110.436 145.926 108.617 146.258 106.97C146.642 105.048 148.669 104.619 150.266 104.665C152.454 104.722 154.682 105.168 156.795 105.78C161.255 107.067 165.126 109.555 168.877 112.226C169.341 112.558 169.719 113.009 170.463 113.713L170.469 113.707Z" fill="#FEE600"/>
<path d="M811.677 169.454C805.916 169.454 800.791 169.425 795.672 169.471C794.063 169.483 794.011 168.167 793.691 167.229C793.404 166.4 793.519 165.428 793.513 164.518C793.473 160.309 796.067 158.461 799.852 160.509C803.551 162.511 806.89 165.187 810.349 167.618C810.795 167.933 811.036 168.545 811.683 169.454H811.677Z" fill="#FEE600"/>
<path d="M191.52 129.012C195.339 129.012 198.781 128.823 202.182 129.121C203.23 129.212 204.226 130.562 205.143 131.443C206.591 132.833 207.954 134.314 209.695 136.11C208.659 136.287 208.155 136.447 207.645 136.453C203.717 136.465 199.788 136.413 195.866 136.465C194.434 136.482 193.77 135.956 193.432 134.52C193.02 132.758 192.258 131.083 191.525 129.018L191.52 129.012Z" fill="#FEE600"/>
<path d="M796.118 172.852C802.223 172.852 808.195 172.697 814.145 172.995C815.187 173.046 816.172 174.951 817.123 176.054C817.472 176.455 817.644 177.01 818.067 177.81C817.294 177.879 816.659 177.976 816.029 177.982C811.11 177.993 806.185 177.988 801.266 177.982C798.18 177.976 796.565 176.455 796.124 172.857L796.118 172.852Z" fill="#FEE600"/>
<path d="M790.942 176.97C788.548 176.97 786.326 176.97 784.099 176.97C779.529 176.97 774.953 176.827 770.389 177.044C767.927 177.158 766.478 176.175 765.316 174.001C765.843 173.91 766.278 173.772 766.719 173.767C773.682 173.755 780.64 173.864 787.597 173.71C789.985 173.658 790.489 174.928 790.936 176.97H790.942Z" fill="#FEE600"/>
<path d="M199.828 125.609C196.238 125.609 192.997 125.609 189.75 125.609C189.681 125.609 189.584 125.598 189.55 125.558C187.66 122.932 185.776 120.307 183.617 117.293C186.6 117.293 189.034 117.207 191.451 117.35C192.075 117.385 192.745 118.054 193.243 118.569C195.35 120.759 197.4 123.001 199.823 125.609H199.828Z" fill="#FEE600"/>
<path d="M790.426 200.579C801.106 200.991 811.568 199.784 822.489 201.975C821.744 202.438 821.24 203.021 820.736 203.021C818.858 203.01 816.986 202.73 815.102 202.701C813.653 202.678 812.198 202.998 810.749 202.976C807.302 202.918 803.855 202.667 800.408 202.644C798.111 202.632 795.815 202.878 793.513 203.021C791.984 203.113 791.096 202.352 790.415 200.585L790.426 200.579Z" fill="#FEE600"/>
<path d="M770.659 179.634C777.943 179.634 784.883 179.571 791.823 179.72C792.642 179.737 793.433 180.898 794.24 181.533C794.183 181.705 794.12 181.871 794.062 182.042C793.484 182.122 792.906 182.265 792.327 182.265C786.498 182.277 780.674 182.197 774.845 182.3C772.915 182.334 771.712 181.607 770.664 179.64L770.659 179.634Z" fill="#FEE600"/>
<path d="M798.317 187.979C791.56 187.979 785.118 188.048 778.681 187.899C777.776 187.876 776.9 186.772 775.509 185.834C776.603 185.657 777.101 185.514 777.599 185.514C783.417 185.508 789.241 185.577 795.059 185.491C796.731 185.468 797.561 186.235 798.311 187.985L798.317 187.979Z" fill="#FEE600"/>
<path d="M172.393 139.284H187.998C188.49 140.777 187.946 141.761 186.732 142.447C183.64 144.186 174.735 142.338 172.393 139.284Z" fill="#FEE600"/>
<path d="M788.147 170.266C787.598 170.318 787.048 170.415 786.504 170.415C778.773 170.421 771.037 170.438 763.306 170.375C762.424 170.369 761.543 169.86 760.661 169.58C760.701 169.34 760.741 169.105 760.781 168.865C761.285 168.791 761.783 168.653 762.287 168.653C770.373 168.636 778.458 168.619 786.544 168.671C787.203 168.671 787.85 169.197 788.508 169.477C788.388 169.74 788.268 170.003 788.147 170.266Z" fill="#FEE600"/>
<path d="M189 113.805C185.776 113.805 182.907 114.256 180.284 113.644C178.572 113.244 177.226 111.299 175.72 110.041C176.041 109.709 176.367 109.092 176.682 109.103C178.337 109.143 180.038 109.658 181.63 109.412C185.226 108.857 186.726 111.38 189 113.805Z" fill="#FEE600"/>
<path d="M217.197 144.849H192.98C192.911 144.655 192.837 144.466 192.768 144.272C193.455 143.94 194.142 143.322 194.835 143.311C201.632 143.231 208.424 143.225 215.221 143.299C215.965 143.305 216.698 143.934 217.437 144.272C217.357 144.466 217.277 144.655 217.197 144.849Z" fill="#FEE600"/>
<path d="M803.774 192.589C803.001 193.115 802.681 193.521 802.36 193.521C796.347 193.453 790.335 193.367 784.322 193.178C783.417 193.149 782.524 192.578 781.63 192.257C781.67 192.011 781.705 191.76 781.745 191.514C782.3 191.445 782.856 191.325 783.411 191.325C789.023 191.308 794.635 191.256 800.241 191.359C801.289 191.376 802.331 192.063 803.774 192.589Z" fill="#FEE600"/>
<path d="M816.802 205.972C812.055 208.248 802.417 208.22 795.872 205.972H816.802Z" fill="#FEE600"/>
<path d="M167.446 103.721C171.265 103.721 175.096 103.607 178.91 103.813C179.757 103.858 180.542 105.025 181.229 105.975C176.528 105.58 171.58 107.782 167.446 103.727V103.721Z" fill="#FEE600"/>
<path d="M152.958 96.6921C158.804 94.6331 164.353 96.1659 169.891 96.6921H152.958Z" fill="#FEE600"/>
<path d="M787.076 196.667H807.468C807.468 196.799 807.468 196.936 807.468 197.067H787.076C787.076 196.936 787.076 196.799 787.076 196.667Z" fill="#FEE600"/>
<path d="M212.123 139.736H195.568C195.568 139.633 195.568 139.53 195.568 139.427H212.123C212.123 139.53 212.123 139.633 212.123 139.736Z" fill="#FEE600"/>
<path d="M613.836 151.323C613.796 145.77 613.738 140.136 613.716 134.503C613.693 129.727 613.75 124.951 613.693 120.176C613.675 118.666 614.139 118.014 615.737 118.042C620.026 118.117 624.315 118.128 628.604 118.054C630.213 118.025 630.654 118.683 630.654 120.181C630.626 140.971 630.626 161.767 630.666 182.557C630.666 184.181 630.185 184.816 628.501 184.776C624.281 184.685 620.06 184.679 615.846 184.776C614.334 184.81 613.544 184.158 612.931 182.917C610.6 178.239 608.235 173.572 605.865 168.911C603.683 164.61 601.501 160.309 599.279 156.031C598.46 154.452 597.504 152.942 596.095 151.432C596.095 152.273 596.067 153.119 596.095 153.96C596.33 160.108 596.628 166.251 596.805 172.399C596.903 175.768 596.765 179.143 596.846 182.511C596.886 184.113 596.382 184.805 594.687 184.77C590.466 184.69 586.246 184.679 582.026 184.765C580.336 184.799 579.878 184.164 579.878 182.54C579.918 161.75 579.924 140.954 579.873 120.164C579.873 118.454 580.485 117.991 582.089 118.025C586.166 118.105 590.249 118.105 594.326 118.025C595.786 117.997 596.611 118.506 597.264 119.815C600.436 126.181 603.689 132.507 606.924 138.838C608.923 142.744 610.938 146.651 612.988 150.534C613.194 150.923 613.664 151.169 613.836 151.323Z" fill="black"/>
<path d="M361.164 151.427C361.164 141.172 361.21 130.911 361.124 120.656C361.107 118.632 361.708 118.003 363.752 118.026C371.701 118.128 379.649 118.048 387.597 118.06C392.344 118.066 396.88 118.906 401.008 121.434C404.519 123.585 406.099 126.845 407.004 130.711C408.579 137.46 406.58 143.116 402.194 148.184C401.529 148.95 401.501 149.505 402.606 150.123C406.179 152.113 408.075 155.333 408.676 159.297C409.042 161.699 409.592 164.158 409.392 166.537C408.997 171.267 407.868 175.86 404.312 179.389C401.982 181.699 399.067 183.284 395.923 183.707C390.953 184.376 385.902 184.571 380.88 184.708C375.188 184.862 369.484 184.656 363.787 184.771C361.794 184.811 361.112 184.296 361.135 182.197C361.238 171.942 361.181 161.682 361.181 151.427H361.164ZM378.944 168.591C382.157 168.591 385.089 168.631 388.009 168.579C390.689 168.533 392.55 166.36 392.665 163.266C392.797 159.829 391.279 157.729 388.336 157.569C385.679 157.426 383.01 157.455 380.353 157.569C379.866 157.592 379.019 158.364 379.002 158.81C378.881 161.95 378.939 165.096 378.939 168.585L378.944 168.591ZM378.922 144.003C379.471 144.14 379.672 144.232 379.872 144.232C381.974 144.243 384.081 144.215 386.183 144.243C388.267 144.272 389.676 143.282 390.552 141.452C391.8 138.856 390.752 135.155 388.101 134.56C385.364 133.948 382.42 134.246 379.563 134.234C379.351 134.234 378.956 134.961 378.95 135.355C378.899 138.209 378.922 141.069 378.922 144.003Z" fill="black"/>
<path d="M490.546 159.439H475.337C475.291 160.166 475.222 160.772 475.222 161.384C475.211 168.339 475.153 175.293 475.245 182.248C475.268 184.216 474.564 184.828 472.657 184.782C468.368 184.679 464.079 184.696 459.79 184.771C458.077 184.799 457.453 184.227 457.453 182.454C457.499 161.801 457.499 141.149 457.453 120.496C457.453 118.66 458.043 117.991 459.887 118.031C464.176 118.122 468.465 118.111 472.754 118.048C474.581 118.025 475.239 118.809 475.228 120.57C475.182 126.541 475.279 132.512 475.188 138.484C475.159 140.199 475.772 140.697 477.387 140.668C481.115 140.6 484.843 140.583 488.57 140.685C490.22 140.731 490.592 140.045 490.58 138.564C490.523 132.661 490.546 126.764 490.552 120.862C490.552 118.34 490.827 118.065 493.329 118.06C497.549 118.048 501.77 118.111 505.99 118.031C507.742 117.997 508.304 118.66 508.304 120.387C508.263 140.971 508.252 161.55 508.315 182.134C508.321 184.181 507.645 184.828 505.641 184.776C501.352 184.662 497.063 184.702 492.774 184.776C491.119 184.805 490.54 184.159 490.552 182.534C490.603 175.648 490.569 168.768 490.569 161.882C490.569 161.127 490.569 160.366 490.569 159.445L490.546 159.439Z" fill="black"/>
<path d="M519.951 142.807C519.951 134.474 520.014 127.588 519.911 120.708C519.883 118.729 520.415 117.945 522.505 118.014C526.794 118.151 531.089 118.14 535.378 118.031C537.302 117.98 537.76 118.757 537.755 120.525C537.703 133.942 537.64 147.366 537.818 160.783C537.846 163.008 538.579 165.502 539.77 167.372C541.546 170.158 544.815 169.883 547.575 169.323C549.872 168.854 551.55 167.075 552.031 164.598C552.397 162.705 552.855 160.789 552.861 158.879C552.935 146.233 552.895 133.588 552.895 120.942C552.895 119.032 553.882 118.075 555.856 118.071C560.007 118.071 564.159 118.134 568.305 118.048C569.989 118.014 570.693 118.466 570.687 120.29C570.63 133.004 570.83 145.724 570.596 158.439C570.458 165.714 569.319 172.897 564.617 178.891C561.823 182.454 558.106 184.782 553.628 185.491C550.129 186.046 546.55 186.315 543 186.355C537.096 186.418 531.713 184.645 527.413 180.492C524.492 177.673 522.757 174.093 521.623 170.158C518.886 160.669 520.427 150.969 519.963 142.819L519.951 142.807Z" fill="black"/>
<path d="M670.212 160.195C670.212 167.567 670.16 174.945 670.246 182.317C670.269 184.199 669.548 184.788 667.767 184.759C663.478 184.691 659.183 184.668 654.9 184.782C653.05 184.834 652.477 184.233 652.483 182.374C652.546 167.693 652.483 153.017 652.563 138.335C652.575 136.333 651.962 135.79 650.044 135.864C646.465 136.002 642.868 135.847 639.284 135.939C637.703 135.979 637.205 135.43 637.234 133.874C637.314 129.31 637.314 124.74 637.245 120.176C637.222 118.672 637.634 118.031 639.255 118.031C653.955 118.071 668.649 118.066 683.348 118.037C684.912 118.037 685.456 118.655 685.438 120.176C685.387 124.74 685.381 129.31 685.461 133.874C685.49 135.47 684.871 135.95 683.348 135.916C679.695 135.841 676.036 135.944 672.376 135.864C670.739 135.83 670.16 136.379 670.177 138.055C670.252 145.427 670.212 152.805 670.206 160.177L670.212 160.195Z" fill="black"/>
<path d="M324.996 142.55C324.996 149.854 325.38 157.18 324.882 164.45C324.446 170.815 322.768 176.975 317.672 181.596C314.488 184.479 310.68 185.823 306.58 186.298C303.803 186.624 300.962 186.338 298.151 186.401C292.275 186.544 287.608 184.01 283.594 179.972C283.451 179.823 283.331 179.652 283.188 179.503C279.935 176.1 279.964 176.129 283.359 172.577C285.301 170.541 287.162 168.419 288.988 166.28C289.973 165.125 290.85 165.176 291.708 166.291C293.627 168.779 296.255 170.02 299.199 170.838C303.104 171.919 306.981 169.477 307.21 165.485C307.433 161.636 307.405 157.769 307.41 153.909C307.433 142.882 307.416 131.861 307.422 120.834C307.422 118.208 307.674 117.963 310.325 117.957C314.333 117.945 318.342 117.945 322.35 117.957C325.002 117.957 325.099 118.06 325.099 120.656C325.099 127.96 325.099 135.264 325.099 142.567C325.065 142.567 325.025 142.567 324.99 142.567L324.996 142.55Z" fill="black"/>
<path d="M325.958 176.935C326.204 171.702 329.972 167.836 335.063 167.767C340.411 167.698 344.34 171.748 344.466 176.821C344.597 182.083 340.532 186.046 335.664 186.286C330.511 186.544 326.136 181.962 325.958 176.935Z" fill="black"/>
<path d="M431.438 177.164C431.725 182.763 426.72 186.046 422.259 186.252C417.878 186.452 412.936 181.917 413.12 177.856C413.383 171.942 416.057 168.179 422.437 167.733C426.531 167.447 432.097 171.999 431.438 177.17V177.164Z" fill="black"/>
<path d="M378.944 168.59C378.944 165.102 378.887 161.956 379.007 158.816C379.024 158.364 379.866 157.592 380.359 157.575C383.016 157.46 385.684 157.432 388.341 157.575C391.285 157.729 392.796 159.828 392.67 163.271C392.556 166.366 390.695 168.533 388.015 168.585C385.089 168.636 382.163 168.596 378.95 168.596L378.944 168.59Z" fill="#FEE600"/>
<path d="M378.916 144.003C378.916 141.069 378.893 138.215 378.944 135.355C378.95 134.961 379.345 134.234 379.557 134.234C382.409 134.246 385.358 133.948 388.095 134.56C390.752 135.155 391.794 138.855 390.546 141.452C389.67 143.277 388.261 144.266 386.177 144.243C384.075 144.215 381.968 144.243 379.866 144.232C379.666 144.232 379.465 144.14 378.916 144.003Z" fill="#FEE600"/>
</svg>
