<svg width="208" height="80" viewBox="0 0 208 80" fill="none" xmlns="http://www.w3.org/2000/svg">
<g clip-path="url(#clip0_71_4216)">
<g clip-path="url(#clip1_71_4216)">
<g clip-path="url(#clip2_71_4216)">
<path d="M70.8678 24.0512H79.192C79.192 24.5585 79.2132 25.0365 79.1887 25.5095C78.9978 29.2059 79.2702 32.8517 80.5769 36.3441C82.0841 40.3716 84.8588 43.1137 89.007 44.4252C92.6936 45.5915 96.465 45.5149 100.231 45.1511C102.218 44.9602 104.173 44.4317 106.143 44.0598C106.68 43.9587 106.895 43.6716 106.892 43.1006C106.872 38.8611 106.871 34.6199 106.892 30.3804C106.895 29.7442 106.694 29.5289 106.05 29.5337C102.517 29.5582 98.9836 29.5452 95.4504 29.5452C95.1258 29.5452 94.8011 29.5452 94.395 29.5452V24.2633H113.867V25.255C113.867 32.5124 113.839 39.7697 113.896 47.0254C113.904 48.0987 113.539 48.6305 112.619 49.0562C108.91 50.7739 105.042 51.8799 100.961 52.167C97.0783 52.4394 93.1944 52.5291 89.3316 51.8881C82.797 50.8033 77.5754 47.7023 74.1759 41.8854C72.0814 38.2983 71.0799 34.372 70.8841 30.2466C70.7879 28.219 70.8678 26.1832 70.8678 24.0512Z" fill="#183B89"/>
<path d="M153.608 24.0137C154.152 24.0137 154.444 24.0137 154.736 24.0137C160.253 24.0137 165.77 24.0577 171.287 23.9892C173.145 23.9664 174.889 24.2176 176.588 24.9631C178.609 25.8504 180.529 26.8732 182.226 28.3185C184.309 30.0933 185.469 32.377 185.974 34.9935C186.567 38.0651 186.421 41.0975 185.085 43.9994C183.904 46.5605 182.009 48.4364 179.56 49.7691C175.977 51.72 172.055 52.2273 168.064 52.3285C163.406 52.4476 158.77 52.2322 154.231 51.0561C153.21 50.7919 152.218 50.4085 151.224 50.0464C151.06 49.986 150.848 49.7511 150.846 49.5962C150.822 47.3206 150.83 45.0434 150.83 42.6374C152.073 43.0126 153.2 43.3535 154.329 43.6928C159.283 45.1837 164.344 45.6258 169.479 45.1478C170.954 45.0108 172.429 44.6862 173.854 44.2768C176.145 43.6177 177.441 42.0142 177.716 39.6408C177.962 37.5153 177.88 35.442 176.347 33.7276C175.21 32.4553 173.724 31.6804 172.147 31.178C168.84 30.1242 165.488 29.214 162.165 28.2141C159.35 27.3658 156.622 26.3088 154.216 24.565C154.068 24.4574 153.942 24.3187 153.609 24.0137H153.608Z" fill="#183B89"/>
<path d="M183.002 17.3403V19.058C182.576 19.058 182.181 19.058 181.785 19.058C145.657 19.0825 109.528 19.1282 73.3998 19.0776C71.1455 19.0743 69.5126 19.6143 68.0315 21.3091C66.304 23.2845 64.3237 25.0365 62.4902 26.9222C62.2455 27.1734 62.1232 27.6415 62.1183 28.0118C62.084 30.6218 62.0726 33.2317 62.1085 35.8401C62.1199 36.6687 61.8508 37.2446 61.2505 37.8285C57.8053 41.184 54.4026 44.5802 51.008 47.9878C50.7715 48.2243 50.61 48.6501 50.6084 48.9877C50.5937 53.8537 50.6182 58.7196 50.6133 63.5856C50.6133 64.1288 50.8204 64.411 51.2984 64.6442C55.2476 66.5723 59.1853 68.5184 63.1247 70.4677C65.1654 71.4774 67.1947 72.5133 69.2402 73.5165C69.8242 73.8036 69.984 74.2538 69.7377 74.7872C69.4833 75.3353 69.0037 75.3451 68.4898 75.0922C65.4721 73.6062 62.4511 72.1299 59.4333 70.6423C56.5868 69.2394 53.7534 67.8072 50.8938 66.4288C48.9478 65.4892 48.9315 65.5202 48.9249 63.336C48.9135 58.4162 48.9119 53.4948 48.8858 48.575C48.8825 47.9144 49.0342 47.4283 49.5415 46.934C52.9785 43.5851 56.3813 40.1987 59.7644 36.796C60.0515 36.5072 60.2538 35.9999 60.262 35.5905C60.3125 32.8729 60.3109 30.1536 60.2978 27.436C60.2946 26.8618 60.4234 26.4132 60.8476 25.9875C63.5815 23.2372 66.2779 20.4511 69.0281 17.7172C69.2826 17.4643 69.8177 17.4056 70.2222 17.4056C81.2868 17.386 92.3514 17.386 103.414 17.3811C129.538 17.3697 155.664 17.3567 181.788 17.3436C182.163 17.3436 182.539 17.3436 183.003 17.3436L183.002 17.3403Z" fill="#183B89"/>
<path d="M146.211 38.3652C146.211 42.7124 146.193 47.0596 146.228 51.4068C146.234 52.2208 146.012 52.503 145.176 52.472C143.548 52.4117 141.915 52.4198 140.287 52.4688C139.549 52.4916 139.375 52.2224 139.377 51.5259C139.398 44.5981 139.39 37.6687 139.39 30.7408C139.39 29.661 139.386 29.6593 138.316 29.6577C131.985 29.6577 125.655 29.6447 119.326 29.674C118.53 29.6773 118.205 29.506 118.262 28.6431C118.34 27.4523 118.311 26.2517 118.272 25.0577C118.251 24.4182 118.458 24.2225 119.105 24.2274C123.317 24.2551 127.527 24.2453 131.739 24.2404C136.249 24.2355 140.76 24.2372 145.269 24.1915C146.032 24.1833 146.233 24.4247 146.228 25.1588C146.2 29.5598 146.213 33.9609 146.215 38.3636L146.211 38.3652Z" fill="#EB3337"/>
<path d="M51.2586 18.001C52.4673 16.6895 53.6777 15.3812 54.8832 14.0681C56.2958 12.5299 57.7084 10.99 59.1145 9.44521C59.5305 8.98846 60.0166 8.85797 60.4619 9.29677C60.9007 9.72578 60.7849 10.2364 60.3853 10.6735C58.1326 13.1383 55.8798 15.6047 53.6255 18.0662C52.8751 18.8867 52.0791 19.6697 51.3777 20.5294C51.133 20.8295 51.0008 21.3091 50.9976 21.7088C50.9698 24.6711 50.9535 27.6366 51.0106 30.5989C51.0286 31.5238 50.7366 32.1665 50.0727 32.7978C48.1674 34.6117 46.3323 36.4991 44.458 38.3456C44.0453 38.7518 43.8708 39.189 43.8691 39.7844C43.8528 47.7496 43.8006 55.7165 43.799 63.6818C43.799 64.2544 44.0045 64.9134 44.3275 65.3864C46.4562 68.4955 48.66 71.5557 50.7937 74.6632C51.0286 75.0058 51.0449 75.5555 51.0041 75.9943C50.9911 76.1427 50.4886 76.3548 50.2179 76.3417C49.9781 76.3303 49.6861 76.0954 49.5295 75.8768C47.6193 73.2081 45.7304 70.5248 43.8365 67.8447C43.7892 67.7778 43.7598 67.6946 43.7027 67.6408C42.0095 66.0275 41.928 63.9966 41.9688 61.814C42.1074 54.2305 42.1237 46.6453 42.1612 39.0601C42.1645 38.3782 42.3619 37.8921 42.8561 37.4223C44.5591 35.796 44.5918 35.7454 43.2656 33.8336C42.4679 32.6853 42.1743 31.5108 42.1808 30.1145C42.22 21.5783 42.1792 13.0404 42.1694 4.50423C42.1694 4.15351 42.1074 3.74408 42.264 3.46677C42.419 3.19109 42.8219 2.87953 43.0959 2.89747C43.3651 2.91541 43.6864 3.2857 43.8398 3.57606C43.9654 3.81259 43.8822 4.16167 43.8822 4.46018C43.8887 12.8887 43.9181 21.3156 43.8724 29.7442C43.8659 31.01 44.1725 32.0524 44.8919 33.0621C45.8755 34.4437 45.7548 34.3622 47.0957 33.2905C48.7742 31.9496 49.2799 30.3738 49.2424 28.2337C49.107 20.3793 49.1837 12.5201 49.1804 4.66409C49.1804 4.47323 49.1755 4.28401 49.182 4.09316C49.2032 3.4945 49.3647 2.98393 50.089 2.99045C50.8067 2.99698 50.9715 3.48471 50.9715 4.09968C50.9698 8.28704 50.9731 12.4728 50.9764 16.6601C50.9764 17.0842 50.9764 17.5084 50.9764 17.9325C51.071 17.9553 51.1672 17.9781 51.2618 18.001H51.2586Z" fill="#183B89"/>
<path d="M28.952 18.1559C28.9814 17.6062 29.0107 17.293 29.0124 16.9782C29.0172 12.7109 29.0172 8.44201 29.0189 4.17472C29.0189 3.60706 29.027 3.03776 29.7953 2.98719C30.2929 2.95457 30.6501 3.15521 30.7056 3.69677C30.7349 3.99366 30.7366 4.2938 30.7366 4.59232C30.7333 12.9099 30.7447 21.2292 30.7072 29.5468C30.7023 30.6169 30.8654 31.457 31.7724 32.1698C32.5913 32.8125 33.2486 33.6607 34.1099 34.5579C34.8945 33.0931 36.0462 32.1078 36.0364 30.3934C35.9907 21.8311 36.0266 13.2672 36.0331 4.70487C36.0331 4.56948 36.0331 4.43246 36.0331 4.29706C36.0364 3.29223 36.3121 2.84201 36.9238 2.84038C37.5518 2.84038 37.8259 3.27429 37.8242 4.29217C37.8193 13.2623 37.821 22.234 37.7851 31.2041C37.7834 31.7326 37.5502 32.2987 37.2957 32.7766C36.852 33.6118 36.33 34.4111 35.7934 35.1908C35.4753 35.6525 35.5633 35.982 35.9434 36.3164C36.1065 36.4599 36.2321 36.6524 36.41 36.7682C37.7084 37.6099 37.8552 38.8399 37.852 40.2786C37.834 48.3793 37.9107 56.4799 37.9156 64.5806C37.9156 65.0765 37.6758 65.6393 37.3854 66.0585C35.1735 69.2459 32.9208 72.404 30.6811 75.5718C30.5555 75.7496 30.4658 76.0269 30.2994 76.0856C29.9454 76.2096 29.4854 76.3629 29.1967 76.2292C28.9797 76.1297 28.8427 75.5832 28.8867 75.2651C28.9341 74.9177 29.2065 74.5882 29.4218 74.2799C31.5244 71.28 33.6483 68.2949 35.7314 65.282C35.9744 64.9313 36.1229 64.4354 36.1229 64.0064C36.1082 55.9335 36.0609 47.8589 36.0397 39.786C36.038 39.1368 35.839 38.667 35.3709 38.2135C33.4052 36.3066 31.4576 34.3817 29.549 32.4177C29.2489 32.1094 29.0384 31.5728 29.0336 31.1389C28.9911 28.0134 29.0368 24.8864 28.9862 21.761C28.9781 21.283 28.722 20.7137 28.3974 20.3499C25.7336 17.3811 23.0274 14.4498 20.3342 11.5071C20.0602 11.2069 19.7959 10.897 19.5137 10.6034C19.1092 10.1858 19.0325 9.7111 19.4501 9.30982C19.9297 8.84818 20.4419 8.98194 20.8725 9.455C21.9312 10.6197 22.9866 11.786 24.0436 12.9491C25.3747 14.4139 26.7058 15.882 28.045 17.3403C28.2587 17.5736 28.5197 17.7661 28.9553 18.1511L28.952 18.1559Z" fill="#183B89"/>
<path d="M77.3708 9.42891C78.0836 8.82698 78.7736 8.19407 79.5142 7.6264C83.6967 4.42594 88.5447 3.27429 93.6912 3.04103C98.2211 2.83713 102.699 3.31181 107.154 4.06381C108.999 4.37537 110.835 4.73261 112.667 5.10942C112.891 5.1551 113.223 5.44545 113.23 5.63141C113.279 6.92987 113.256 8.22995 113.256 9.5904H77.4996C77.4556 9.53493 77.4116 9.4811 77.3691 9.42564L77.3708 9.42891Z" fill="#183B89"/>
<path d="M132.53 3.21067C136.879 3.21067 141.228 3.23024 145.576 3.19273C146.351 3.1862 146.547 3.43252 146.524 4.1633C146.475 5.71134 146.49 7.261 146.518 8.81066C146.527 9.38322 146.315 9.56429 145.759 9.56266C136.952 9.55124 128.147 9.55124 119.34 9.56266C118.733 9.56266 118.534 9.33755 118.544 8.74705C118.57 7.17128 118.576 5.59389 118.542 4.01813C118.527 3.36237 118.777 3.19436 119.403 3.19762C123.78 3.22046 128.155 3.20904 132.531 3.20904L132.53 3.21067Z" fill="#EB3337"/>
<path d="M151.57 9.44684C152.868 7.58888 154.436 6.26269 156.309 5.26764C159.894 3.36564 163.797 2.92847 167.753 2.82896C172.308 2.71478 176.813 3.18294 181.247 4.2677C181.694 4.377 182.15 4.49118 182.56 4.69182C182.765 4.79133 183.002 5.08495 183.008 5.29701C183.049 6.65255 183.03 8.01136 183.03 9.44847H151.571L151.57 9.44684Z" fill="#183B89"/>
<path d="M19.6094 31.4015C19.6094 32.7342 19.5637 34.0685 19.6338 35.3964C19.6583 35.8629 19.8459 36.4322 20.164 36.7535C23.2209 39.8333 26.3219 42.869 29.4098 45.921C29.8339 46.3402 30.2906 46.7383 30.6544 47.2081C30.8828 47.5049 31.0916 47.9144 31.0932 48.2732C31.1079 53.7101 31.0785 59.147 31.085 64.5839C31.085 65.2168 30.8616 65.5316 30.2825 65.8138C24.3334 68.7158 18.4023 71.6536 12.4662 74.5833C12.1008 74.7627 11.7469 74.9633 11.3766 75.1314C10.8513 75.3728 10.3799 75.2782 10.1597 74.7252C9.95415 74.2113 10.1238 73.7986 10.6735 73.5295C12.8904 72.448 15.0941 71.3355 17.3061 70.2409C21.1231 68.3504 24.9467 66.4745 28.7491 64.5561C29.0069 64.4256 29.263 63.9917 29.2646 63.6965C29.3054 58.7767 29.3184 53.8553 29.294 48.9355C29.2923 48.5571 29.0623 48.0905 28.7883 47.8165C25.3317 44.3648 21.836 40.9539 18.3892 37.4925C18.0923 37.194 17.952 36.6214 17.9439 36.1712C17.8966 33.589 17.8901 31.0067 17.9194 28.4245C17.9276 27.6937 17.7204 27.1391 17.2229 26.6024C14.7304 23.9158 12.277 21.1949 9.79103 18.5034C9.34408 18.0206 9.08145 17.5198 9.62465 17.0304C10.1075 16.5949 10.6295 16.7988 11.052 17.2604C13.7957 20.2668 16.5508 23.2617 19.2766 26.2843C19.4838 26.5143 19.5784 26.9156 19.5865 27.2419C19.6192 28.6268 19.6012 30.0149 19.6012 31.4015H19.611H19.6094Z" fill="#183B89"/>
<path d="M121.371 67.6196C121.2 70.6439 120.661 73.1201 118.575 74.9846C115.301 77.9094 109.734 76.7022 108.018 72.6552C106.635 69.396 106.662 66.1286 108.444 63.0293C109.89 60.5091 112.22 59.3754 115.086 59.6886C118.141 60.023 120.002 61.9185 120.854 64.7959C121.159 65.8269 121.249 66.9214 121.371 67.618V67.6196ZM109.093 68.1644C109.028 68.1807 108.961 68.197 108.895 68.2133C109.2 69.44 109.381 70.714 109.837 71.8836C111.155 75.2766 115.099 76.0873 117.57 73.5099C118.606 72.4301 119.007 71.0386 119.223 69.5983C119.568 67.2901 119.257 65.0977 117.901 63.1419C116.096 60.5368 112.321 60.5662 110.502 63.1598C109.443 64.6703 109.094 66.3635 109.093 68.1628V68.1644Z" fill="#183B89"/>
<path d="M91.101 62.0114C89.5546 61.3361 87.974 61.2431 86.3623 61.4797C83.9905 61.8271 81.9971 63.703 81.5208 66.0438C81.1848 67.693 81.1391 69.3519 81.7394 70.944C82.7655 73.6682 84.7392 74.9487 87.6445 74.8818C89.3953 74.8405 90.2707 73.952 90.2707 72.2164C90.2707 71.7009 90.2707 71.1838 90.2707 70.6683C90.2707 69.7766 89.8374 69.3307 88.9706 69.3307C88.403 69.3307 87.8369 69.3307 87.1942 69.3307V67.8708C87.3786 67.8479 87.5841 67.8006 87.788 67.8006C88.9837 67.7941 90.1794 67.8235 91.3734 67.786C91.9574 67.7664 92.1189 67.985 92.1124 68.5396C92.0879 70.6847 92.0879 72.8313 92.1124 74.978C92.1173 75.4821 91.9183 75.6892 91.4599 75.8312C89.646 76.3956 87.8027 76.6256 85.9121 76.3907C82.8699 76.0139 80.8047 74.3941 79.8554 71.4725C79.0544 69.0061 79.1197 66.5364 80.2354 64.1679C81.9058 60.62 85.4749 59.4308 89.1028 59.8484C89.4535 59.8892 89.8026 59.9479 90.1484 60.0148C91.6931 60.315 91.7453 60.4177 91.101 62.0147V62.0114Z" fill="#183B89"/>
<path d="M101.909 68.5233C103.999 69.4841 104.074 71.4546 104.549 73.2065C104.816 74.1951 105.02 75.2015 105.283 76.3271C104.826 76.3271 104.314 76.4364 103.89 76.2895C103.598 76.19 103.32 75.7676 103.224 75.4348C102.862 74.1853 102.596 72.908 102.257 71.6503C101.756 69.7891 100.913 69.1464 98.9765 69.1578C96.9114 69.1692 97.2327 68.8724 97.2132 70.9212C97.1968 72.6829 97.2099 74.4446 97.2099 76.2683H95.4563C95.4335 75.9812 95.3894 75.6958 95.3894 75.4103C95.3846 70.5998 95.4025 65.7877 95.3682 60.9772C95.3633 60.2628 95.6031 59.9822 96.2752 59.9838C97.9537 59.9887 99.6453 59.8664 101.309 60.0279C103.224 60.2138 104.426 61.4699 104.787 63.2822C105.162 65.1711 104.425 66.9459 102.854 67.9295C102.585 68.0992 102.314 68.2672 101.906 68.5233H101.909ZM97.2132 64.5366C97.2132 65.3489 97.1838 66.1645 97.2327 66.9736C97.2458 67.2004 97.4986 67.6033 97.6356 67.6C98.7661 67.5804 99.9291 67.6277 101.017 67.3765C102.334 67.0731 103.17 65.6181 103.082 64.2348C102.993 62.814 102.091 61.6738 100.683 61.447C99.7611 61.2986 98.802 61.3671 97.8607 61.3638C97.3991 61.3638 97.1968 61.6232 97.2099 62.0979C97.2311 62.9102 97.2164 63.7226 97.2148 64.5366H97.2132Z" fill="#183B89"/>
<path d="M133.665 59.992H135.469C135.499 60.2269 135.548 60.4324 135.548 60.6396C135.551 63.6851 135.582 66.7289 135.533 69.7744C135.507 71.4448 135.233 73.0875 134.205 74.4854C132.752 76.4657 130.69 76.8213 128.453 76.4657C126.325 76.1281 125.01 74.7872 124.545 72.7106C124.287 71.5541 124.144 70.3535 124.116 69.1693C124.054 66.5609 124.096 63.9493 124.098 61.3394C124.098 60.4183 124.405 59.9572 125.018 59.9561C125.975 59.9561 125.969 59.9561 125.977 61.3769C125.997 64.5578 125.938 67.7403 126.082 70.9163C126.153 72.51 126.682 74.0531 128.39 74.7399C130.509 75.5914 132.747 74.4805 133.324 72.2686C133.528 71.4889 133.637 70.6618 133.647 69.856C133.685 66.8937 133.663 63.9298 133.665 60.9658C133.665 60.6722 133.665 60.3802 133.665 59.992Z" fill="#EB3337"/>
<path d="M139.267 68.1611C139.267 65.7698 139.29 63.3784 139.253 60.9887C139.243 60.3035 139.442 59.9757 140.148 59.9773C141.663 59.9822 143.19 59.8468 144.694 59.9789C147.04 60.1861 148.582 61.7928 148.73 63.9412C148.927 66.8121 147.671 68.8707 145.224 69.4351C144.104 69.6945 142.921 69.7353 141.763 69.763C141.207 69.7761 141.052 69.9245 141.057 70.4432C141.075 72.1544 141.027 73.8672 141.08 75.5783C141.102 76.3287 140.712 76.3336 140.171 76.3352C139.624 76.3352 139.241 76.314 139.253 75.5751C139.29 73.1038 139.267 70.6308 139.266 68.1579L139.267 68.1611ZM142.908 61.2056C142.9 61.2529 142.892 61.2986 142.884 61.3459C142.639 61.3459 142.394 61.3491 142.15 61.3459C141.354 61.3328 141 61.6297 141.042 62.5138C141.119 64.1141 141.086 65.7208 141.052 67.3243C141.039 67.9116 141.269 68.2264 141.823 68.2248C142.659 68.2199 143.508 68.2329 144.322 68.0828C145.745 67.8202 146.66 66.7664 146.856 65.3554C147.094 63.6263 146.585 62.3866 145.179 61.7358C144.489 61.416 143.668 61.3752 142.908 61.2089V61.2056Z" fill="#EB3337"/>
<path d="M182.539 14.3389H181.509C142.849 14.3389 104.191 14.3405 65.5309 14.3242C64.6598 14.3242 64.035 14.5102 63.4282 15.2181C61.1298 17.895 58.7596 20.5098 56.3862 23.1214C55.8756 23.6825 55.6538 24.2535 55.6717 25.0185C55.7435 28.0624 55.7468 31.1079 55.8006 34.1517C55.812 34.7651 55.6407 35.2022 55.171 35.641C52.5137 38.1221 49.9037 40.6571 47.2562 43.1479C46.7979 43.5786 46.6299 44.0321 46.6315 44.647C46.6478 51.0626 46.6413 57.4799 46.6413 63.8955V64.8106C46.5597 64.8139 46.4765 64.8155 46.395 64.8188C46.3787 64.5708 46.3477 64.3229 46.346 64.0749C46.3444 57.5223 46.333 50.9713 46.3689 44.4187C46.3721 43.9652 46.5989 43.391 46.9202 43.0794C49.5302 40.5461 52.1825 38.0569 54.8349 35.5676C55.3047 35.1272 55.5086 34.6509 55.4939 33.9919C55.4254 30.8387 55.3961 27.6856 55.3749 24.5324C55.3732 24.2045 55.4287 23.7886 55.6277 23.5618C58.3013 20.5261 60.9961 17.5067 63.7202 14.5151C63.9698 14.2394 64.451 14.0453 64.8294 14.0387C67.0039 13.9947 69.1783 14.0175 71.3543 14.0175C108.001 14.0175 144.65 14.0175 181.297 14.0175H182.553C182.548 14.1252 182.545 14.2312 182.54 14.3389H182.539Z" fill="#EB3337"/>
<path d="M182.616 60.3394C182.387 61.0245 182.244 61.4568 182.118 61.8287C181.144 61.6787 180.221 61.4356 179.293 61.4144C176.924 61.3622 175.174 62.3997 174.174 64.5969C173.176 66.7893 173.135 69.0453 173.952 71.2621C174.964 74.0026 177.286 75.1966 180.373 74.7203C180.932 74.6338 181.48 74.4691 182.125 74.319C182.255 74.7382 182.387 75.164 182.518 75.5832C179.366 77.2389 173.822 76.6386 172.28 71.944C171.282 68.9034 171.342 65.9476 173.016 63.1582C174.508 60.6738 176.841 59.7163 179.65 59.8566C180.606 59.9039 181.55 60.1567 182.616 60.3362V60.3394Z" fill="#183B89"/>
<path d="M152.95 60.1355H154.604V61.124C154.604 65.2837 154.622 69.4416 154.588 73.6013C154.581 74.3679 154.777 74.6534 155.583 74.6273C157.287 74.5702 158.995 74.6094 160.755 74.6094V76.1509H152.95V60.1371V60.1355Z" fill="#183B89"/>
<path d="M163.162 76.1998V60.2203C163.247 60.1779 163.314 60.1192 163.387 60.1127C164.349 60.0279 164.829 60.4612 164.829 61.4128C164.829 65.4843 164.847 69.5558 164.816 73.6257C164.81 74.4136 165.066 74.6518 165.844 74.6257C167.545 74.5719 169.251 74.6094 170.93 74.6094C170.995 74.7594 171.051 74.8312 171.056 74.9063C171.122 75.7686 170.72 76.1998 169.848 76.1998C167.655 76.1998 165.461 76.1998 163.162 76.1998Z" fill="#183B89"/>
<path d="M39.8489 76.0791V3.31181C39.8994 3.31181 39.9516 3.31181 40.0022 3.31181V76.0742C39.9516 76.0742 39.8994 76.0775 39.8489 76.0791Z" fill="#EB3337"/>
<path d="M15.8723 14.0893C16.7124 15.0224 17.5541 15.9538 18.3893 16.8918C20.3044 19.0401 22.2276 21.1802 24.1133 23.353C24.3661 23.645 24.5472 24.1099 24.5488 24.4949C24.5553 27.6758 24.526 30.855 24.4689 34.0359C24.4558 34.7292 24.7087 35.1908 25.2046 35.6525C27.9075 38.1694 30.586 40.7142 33.2514 43.2703C33.4569 43.4677 33.6005 43.8363 33.6005 44.125C33.6201 50.893 33.6152 57.6626 33.6119 64.4305C33.6119 64.5545 33.5744 64.6785 33.377 64.8122C33.3623 64.5154 33.3362 64.2185 33.3362 63.92C33.3346 57.5598 33.3215 51.198 33.3509 44.8379C33.3542 44.0565 33.103 43.5003 32.5549 42.9865C29.9596 40.5527 27.3953 38.0879 24.7853 35.6704C24.3155 35.2349 24.1589 34.7977 24.1671 34.1844C24.2063 31.0035 24.2324 27.8242 24.203 24.6433C24.1981 24.185 23.9714 23.6352 23.6663 23.2862C21.2162 20.4886 18.7204 17.7302 16.2442 14.9555C16.0436 14.7304 15.8691 14.4792 15.6831 14.241C15.7467 14.1904 15.8103 14.1382 15.874 14.0877L15.8723 14.0893Z" fill="#EB3337"/>
</g>
</g>
</g>
<defs>
<clipPath id="clip0_71_4216">
<rect width="206.347" height="79.2789" fill="white" transform="translate(0.82666 0.347215)"/>
</clipPath>
<clipPath id="clip1_71_4216">
<rect width="292.346" height="75.2235" fill="white" transform="translate(8.70728 2.37494)"/>
</clipPath>
<clipPath id="clip2_71_4216">
<rect width="176.988" height="73.7884" fill="white" transform="translate(9.31787 2.81265)"/>
</clipPath>
</defs>
</svg>
