<svg width="25" height="24" viewBox="0 0 25 24" fill="none" xmlns="http://www.w3.org/2000/svg">
<path d="M20.2416 9.11547L18.6386 9.76303C18.4322 9.84672 18.2152 9.88897 17.9942 9.88897C17.5206 9.88897 17.0623 9.68909 16.7381 9.34053C16.4156 8.99441 16.249 8.52397 16.2823 8.05028L16.4034 6.32616L15.2911 5.00341C15.0441 4.70928 14.9206 4.34934 14.9035 3.98047H4.36293C2.45355 3.98047 0.893555 5.54047 0.893555 7.45797V17.1267C0.893555 19.0442 2.45355 20.5961 4.36293 20.5961H7.00355L6.94668 22.213C6.93043 22.8711 7.2798 23.4723 7.8648 23.7811C8.11668 23.9111 8.3848 23.9761 8.66105 23.9761C9.01855 23.9761 9.37605 23.8542 9.67668 23.6267L13.7067 20.5961H18.3542C20.2636 20.5961 21.8236 19.0442 21.8236 17.1267V9.75491L20.2416 9.11547ZM11.7624 14.868H7.49755C7.09374 14.868 6.7663 14.5405 6.7663 14.1367C6.7663 13.7329 7.09374 13.4055 7.49755 13.4055H11.7624C12.1662 13.4055 12.4936 13.7329 12.4936 14.1367C12.4936 14.5405 12.1662 14.868 11.7624 14.868ZM15.5429 11.1743H7.49918C7.09537 11.1743 6.76793 10.8469 6.76793 10.4431C6.76793 10.0393 7.09537 9.71184 7.49918 9.71184H15.5429C15.9467 9.71184 16.2742 10.0393 16.2742 10.4431C16.2742 10.8469 15.9467 11.1743 15.5429 11.1743Z" fill="#F30F1D"/>
<path d="M20.664 0.993887L21.8413 2.87807L23.9969 3.41514C24.3544 3.50451 24.4949 3.93676 24.2585 4.21951L22.8301 5.92089L22.9853 8.13657C23.0113 8.50382 22.6433 8.77195 22.3012 8.63383L20.2415 7.80101L18.1818 8.63383C17.8406 8.77195 17.4717 8.50464 17.4977 8.13657L17.6529 5.92089L16.2245 4.21951C15.9873 3.93757 16.1286 3.50451 16.4861 3.41514L18.6417 2.87807L19.819 0.993887C20.0132 0.681074 20.469 0.681074 20.664 0.993887Z" fill="#F30F1D"/>
</svg>
