<svg width="374" height="75" viewBox="0 0 374 75" fill="none" xmlns="http://www.w3.org/2000/svg">
<g clip-path="url(#clip0_79_2481)">
<path d="M150.381 56.5624C149.576 61.3502 148.813 65.888 147.933 71.1099C149.025 70.3207 149.608 69.9524 150.136 69.5118C154.784 65.625 159.38 61.6724 164.099 57.8777C165.051 57.1115 166.462 56.5262 167.661 56.5262C233.407 56.4637 299.155 56.4703 364.903 56.4736C365.634 56.4736 366.364 56.5426 367.315 56.5887C366.25 62.8102 365.213 68.8442 364.157 75.0033H0C0.749623 70.4588 1.42428 66.0426 2.21954 61.6494C3.17449 56.3914 3.22012 56.4012 8.65 56.3979C54.7909 56.3979 100.935 56.398 147.076 56.4012C148.093 56.4012 149.11 56.4966 150.381 56.5591V56.5624Z" fill="#F26424"/>
<path d="M171.742 23.1959C172.247 20.0457 172.759 16.8955 173.254 13.7452C173.769 10.4767 174.196 7.19163 174.829 3.94934C174.949 3.32127 175.826 2.39725 176.383 2.37752C180.099 2.23613 183.821 2.30518 187.839 2.30518C187.057 6.90225 186.317 11.2954 185.558 15.6821C183.932 25.0867 182.253 34.4814 180.698 43.8991C180.392 45.7439 179.691 46.4575 177.798 46.3358C175.272 46.1747 172.723 46.1681 170.2 46.3358C168.248 46.4673 167.101 45.836 166.097 44.08C163.314 39.1936 160.312 34.4354 157.388 29.6278C156.965 28.934 156.502 28.2665 155.726 27.0794C155.381 28.3421 155.097 29.1247 154.957 29.9304C154.132 34.6688 153.275 39.4007 152.575 44.1589C152.343 45.7307 151.796 46.372 150.169 46.3259C146.617 46.2273 143.058 46.2963 139.127 46.2963C139.723 42.5542 140.209 39.3218 140.76 36.0992C142.549 25.6654 144.41 15.2414 146.125 4.79444C146.441 2.85433 147.125 2.13748 149.11 2.25586C152.007 2.43014 154.924 2.38081 157.828 2.26901C159.23 2.2164 159.963 2.74582 160.599 3.94934C163.711 9.85188 166.899 15.7182 170.077 21.5879C170.406 22.1962 170.829 22.752 171.211 23.3307C171.39 23.288 171.566 23.2452 171.745 23.2057L171.742 23.1959Z" fill="#F26424"/>
<path d="M120.106 46.0068C121.005 40.2555 121.84 34.9416 122.72 29.3219C121.67 29.2035 120.758 29.0292 119.842 29.0161C117.084 28.9799 114.321 29.1213 111.573 28.97C109.627 28.8615 108.982 29.7559 108.705 31.502C108.014 35.8656 107.216 40.2095 106.437 44.5599C106.332 45.1354 106.091 45.6845 105.892 46.3027H92.5425C92.9629 43.7181 93.341 41.2387 93.7777 38.7692C95.8213 27.1877 97.8648 15.603 99.9735 4.03469C100.088 3.4132 100.775 2.42999 101.219 2.41683C105.299 2.29188 109.383 2.34449 113.734 2.34449C112.981 7.30985 112.267 12.0187 111.498 17.1025C115.875 17.1025 119.943 17.1485 124.007 17.0301C124.398 17.0203 124.978 16.0305 125.096 15.4221C125.924 11.1638 126.654 6.88566 127.436 2.47931H141.102C140.551 5.96493 140.029 9.41438 139.456 12.8572C137.719 23.2779 135.982 33.6986 134.163 44.1062C134.042 44.8033 133.263 45.9114 132.758 45.9312C128.684 46.0791 124.604 46.0134 120.103 46.0134L120.106 46.0068Z" fill="#F26424"/>
<path d="M365.445 25.731C366.087 26.0598 366.455 26.2604 366.833 26.4413C370.223 28.0624 371.36 30.1538 370.754 33.8696C370.2 37.2697 369.558 40.6534 368.978 44.0502C368.749 45.3952 368.212 46.1284 366.65 46.0725C363.153 45.9509 359.65 46.0265 356.149 46.0068C355.941 46.0068 355.732 45.895 355.243 45.7536C355.693 42.9026 356.081 40.0352 356.609 37.1941C357.394 32.9752 355.791 30.7128 351.577 30.7062C344.484 30.6996 346.205 29.6573 344.869 36.2438C344.348 38.8152 343.901 41.4064 343.552 44.0075C343.357 45.4642 342.78 46.1021 341.261 46.0627C337.689 45.9739 334.11 46.0166 330.538 45.9871C330.261 45.9871 329.984 45.8325 329.508 45.6911C330.115 41.9786 330.691 38.3022 331.317 34.6358C333.041 24.5834 334.827 14.5441 336.483 4.48188C336.757 2.82785 337.301 2.26226 339.012 2.28199C346.46 2.37078 353.91 2.26555 361.357 2.31816C363.056 2.33132 364.789 2.52204 366.439 2.91992C369.77 3.72556 372.674 5.25463 373.482 9.00332C374.603 14.2054 374.134 19.082 369.838 22.8241C368.622 23.883 367.136 24.6261 365.448 25.731H365.445ZM347.418 21.6206C350.889 21.3871 353.956 21.1997 357.019 20.9498C357.512 20.9103 358.023 20.6538 358.45 20.3776C360.145 19.2826 361.103 17.7239 360.79 15.6622C360.468 13.5346 358.864 12.7388 356.971 12.5383C354.986 12.3245 352.978 12.1601 350.99 12.2226C350.279 12.2456 349.122 12.8704 348.976 13.4327C348.33 15.9318 347.978 18.5098 347.421 21.6239L347.418 21.6206Z" fill="#F26424"/>
<path d="M245.371 45.7471C245.86 42.7318 246.303 39.7986 246.815 36.8753C248.692 26.0961 250.635 15.3269 252.44 4.53792C252.743 2.73592 253.447 2.23281 255.184 2.25911C261.292 2.35447 267.413 2.0947 273.508 2.38407C276.497 2.52547 279.58 3.21273 282.373 4.30116C287.369 6.24785 290.172 10.2136 290.677 15.6327C291.561 25.1129 288.487 33.2976 282.083 40.1208C278.508 43.932 273.694 45.6682 268.593 45.8721C261.302 46.1648 253.995 46.0003 246.691 46.0168C246.339 46.0168 245.987 45.8754 245.368 45.7471H245.371ZM260.836 35.0206C269.597 37.2929 276.77 31.8934 277.579 22.6138C278.257 14.8238 275.639 12.0287 267.866 12.0156C265.611 12.0123 264.389 12.7258 264.284 15.1362C264.229 16.3989 263.857 17.6484 263.636 18.9079C262.7 24.2843 261.768 29.6607 260.836 35.0206Z" fill="#F26424"/>
<path d="M49.12 13.9851C44.997 13.9851 40.9882 14.0147 36.9826 13.9391C36.5752 13.9325 36.0439 13.3702 35.7962 12.9362C34.2122 10.1477 28.5542 9.13157 26.1424 11.2427C24.692 12.5152 24.7018 14.3107 26.4129 15.3991C27.7101 16.2245 29.2256 16.7539 30.7021 17.2373C34.1014 18.3454 37.6247 19.1116 40.936 20.4335C46.8613 22.8044 48.8006 27.0463 47.2752 33.2645C46.1769 37.74 43.7227 41.2585 39.7595 43.4682C32.1589 47.7068 24.076 48.598 15.8139 45.8818C10.7556 44.2179 7.59086 40.6271 6.93575 35.0764C6.72064 33.2481 7.24212 32.4852 9.20417 32.574C12.3298 32.7187 15.4652 32.6431 18.594 32.6003C19.7999 32.5839 20.5463 32.7845 21.1362 34.1195C22.7658 37.7893 30.5065 38.3647 32.9509 35.1224C34.0884 33.6098 33.9157 32.1103 32.1785 31.1469C30.6988 30.3281 29.0333 29.8118 27.407 29.2988C24.3531 28.3354 21.1656 27.7237 18.2159 26.5103C11.6225 23.7975 9.57573 18.9998 11.7366 12.1272C13.0012 8.1089 15.5955 5.16585 19.2361 3.27507C26.0935 -0.286181 33.3486 -0.887943 40.7209 1.20014C46.6104 2.86732 49.837 7.8557 49.12 13.9851Z" fill="#F26424"/>
<path d="M193.533 2.43994H228.205C227.732 5.33695 227.39 8.09256 226.754 10.7758C226.618 11.3546 225.415 12.0451 224.691 12.0583C219.402 12.1701 214.105 12.2194 208.819 12.0747C206.521 12.0122 205.067 12.4167 205.107 15.1098C205.126 16.2871 204.852 17.4676 204.676 18.967H218.44C217.922 22.2323 217.521 25.1491 216.921 28.0231C216.846 28.3815 215.735 28.7136 215.096 28.7268C211.671 28.7958 208.235 28.8484 204.813 28.7268C203.171 28.6676 202.496 29.3318 202.359 30.8477C201.838 36.6154 200.228 36.2373 206.694 36.2307C212.12 36.2241 217.544 36.2307 223.388 36.2307C222.83 39.3743 222.416 42.2483 221.735 45.0566C221.621 45.5301 220.363 46.0003 219.63 46.0036C210.315 46.0694 200.997 46.0463 191.682 46.0463C189.984 46.0463 188.286 46.0463 186.262 46.0463C188.719 31.3278 191.121 16.9349 193.54 2.43994H193.533Z" fill="#F26424"/>
<path d="M332.464 2.29513C331.943 5.41903 331.591 8.17793 330.942 10.8645C330.809 11.4235 329.58 12.0582 328.847 12.0713C323.407 12.1732 317.964 12.2127 312.524 12.0812C310.504 12.0318 309.571 12.5843 309.347 14.7184C308.819 19.7002 308.111 19.0129 313.036 19.0656C316.152 19.0984 319.268 19.0721 322.621 19.0721C322.129 22.3901 321.68 25.412 321.181 28.7694C317.491 28.7694 313.864 28.7694 310.24 28.7694C306.922 28.7694 306.945 28.776 306.417 32.1169C305.664 36.8817 305.735 36.201 309.976 36.224C315.699 36.2569 321.419 36.2306 327.589 36.2306C327.018 39.509 326.533 42.4948 325.933 45.4543C325.877 45.7273 325.082 46.0068 324.629 46.0101C313.597 46.0298 302.567 46.0166 291.535 45.9903C291.258 45.9903 290.984 45.8259 290.547 45.6845C291.32 40.9954 292.079 36.3457 292.855 31.7026C294.344 22.811 295.906 13.9325 297.297 5.02443C297.626 2.91991 298.343 2.20306 300.556 2.23594C310.243 2.37734 319.936 2.29513 329.626 2.29842C330.434 2.29842 331.239 2.29842 332.461 2.29842L332.464 2.29513Z" fill="#F26424"/>
<path d="M92.787 29.4272C91.2095 34.8792 88.5207 39.1935 84.212 42.2911C76.6701 47.7135 68.3884 48.506 59.7938 45.4216C54.7322 43.6064 51.6034 39.7755 50.5148 34.4287C48.2236 23.1596 53.5719 6.28397 70.093 2.1637C74.7537 1.00292 79.4176 1.18707 83.9969 2.52542C91.4442 4.70557 95.1565 10.5489 94.2504 18.6875H81.6437C81.585 18.6086 81.4286 18.4968 81.4188 18.3718C81.2265 15.4715 80.2944 13.0217 77.2503 12.1174C73.8737 11.1145 70.898 11.9629 68.5025 14.5607C65.6898 17.6089 64.7413 21.4793 64.0536 25.4253C63.8483 26.6058 63.7049 27.8093 63.6821 29.0063C63.6104 32.8635 64.963 35.231 67.7529 36.3096C70.898 37.523 74.7993 36.6648 76.983 34.1163C77.8467 33.1101 78.3812 31.8243 79.1406 30.7195C79.4828 30.2229 80.0011 29.4929 80.4541 29.4831C84.4532 29.3844 88.4555 29.4272 92.787 29.4272Z" fill="#F26424"/>
<path d="M247.229 2.32822C246.356 7.39881 245.541 12.1833 244.703 16.9645C243.116 26.0469 241.483 35.1193 239.964 44.2116C239.723 45.6518 239.149 46.0859 237.79 46.0629C234.078 46.0004 230.366 46.0431 226.285 46.0431C226.689 43.5046 227.028 41.2389 227.41 38.9798C229.372 27.3622 231.379 15.7544 233.266 4.12694C233.504 2.66034 234.036 2.2789 235.398 2.30521C239.192 2.37755 242.989 2.33151 247.226 2.33151L247.229 2.32822Z" fill="#F26424"/>
</g>
<defs>
<clipPath id="clip0_79_2481">
<rect width="374" height="75" fill="white"/>
</clipPath>
</defs>
</svg>
