<svg width="24" height="25" viewBox="0 0 24 25" fill="none" xmlns="http://www.w3.org/2000/svg">
<path d="M11.1033 2.19562C11.4701 1.45237 12.5299 1.45237 12.8967 2.19562L15.5879 7.64858C15.7336 7.94372 16.0152 8.14829 16.3409 8.19562L22.3586 9.07004C23.1788 9.18923 23.5063 10.1972 22.9128 10.7757L18.5583 15.0202C18.3227 15.25 18.2151 15.581 18.2707 15.9054L19.2987 21.8988C19.4388 22.7157 18.5814 23.3386 17.8477 22.9529L12.4653 20.1232C12.174 19.9701 11.826 19.9701 11.5347 20.1232L6.15231 22.9529C5.41869 23.3386 4.56125 22.7157 4.70136 21.8988L5.72931 15.9054C5.78495 15.581 5.6774 15.25 5.44171 15.0202L1.08726 10.7757C0.493745 10.1972 0.821255 9.18923 1.64148 9.07004L7.65918 8.19562C7.98489 8.14829 8.26645 7.94372 8.41212 7.64858L11.1033 2.19562Z" fill="#FFCF23"/>
</svg>
