<svg width="194" height="231" viewBox="0 0 194 231" fill="none" xmlns="http://www.w3.org/2000/svg">
<g clip-path="url(#clip0_82_2500)">
<path d="M0.0197977 81.2428C0.0197977 99.2209 0.026397 117.197 0.0153982 135.175C0.0131985 139.166 0.189178 143.14 0.684121 147.105C1.40344 152.847 2.69249 158.448 4.67226 163.887C9.14874 176.184 16.5091 186.418 26.7313 194.563C31.9513 198.724 37.7168 202.055 43.5396 205.275C60.713 214.777 78.4979 223.017 96.4545 230.903C96.7712 231.042 97.2684 231.02 97.5873 230.872C108.678 225.746 119.805 220.691 130.826 215.418C140.467 210.806 149.9 205.786 159.046 200.233C167.548 195.07 174.849 188.623 180.615 180.482C189.629 167.75 193.837 153.411 193.905 137.966C194.075 99.5073 193.963 61.0466 193.991 22.5858C193.991 21.7312 193.699 21.3391 192.979 20.9669C180.069 14.273 166.488 9.42933 152.359 6.06586C145.821 4.50858 139.226 3.24425 132.57 2.35657C127.706 1.70899 122.818 1.20899 117.926 0.823521C113.001 0.435852 108.06 0.149505 103.122 0.0437774C98.1241 -0.0641531 93.1152 0.0305615 88.1174 0.169329C84.0567 0.281665 79.9938 0.479905 75.9484 0.832331C70.7064 1.28828 65.4468 1.72441 60.2554 2.55261C53.7134 3.59447 47.189 4.82136 40.7371 6.32357C26.8919 9.54607 13.6296 14.4206 0.992086 20.9669C0.250771 21.3501 0 21.7709 0 22.6035C0.0241972 42.1499 0.0197977 61.6964 0.0197977 81.2428Z" fill="black"/>
<path d="M0.0197977 81.2429C0.0197977 61.6964 0.026397 42.15 0 22.6035C0 21.7731 0.250771 21.3524 0.992086 20.967C13.6296 14.4206 26.8919 9.54614 40.7349 6.32364C47.1846 4.82143 53.7112 3.59454 60.2532 2.55268C65.4446 1.72668 70.7042 1.28835 75.9462 0.832401C79.9916 0.479975 84.0567 0.281735 88.1152 0.169399C93.1152 0.0328343 98.1219 -0.0640829 103.12 0.0438476C108.058 0.151778 112.999 0.435922 117.924 0.823591C122.816 1.20906 127.704 1.70906 132.568 2.35664C139.224 3.24432 145.819 4.50865 152.357 6.06593C166.486 9.4294 180.067 14.2731 192.977 20.967C193.696 21.3414 193.989 21.7313 193.989 22.5859C193.96 61.0466 194.075 99.5073 193.903 137.966C193.835 153.413 189.629 167.75 180.612 180.482C174.849 188.621 167.548 195.07 159.044 200.233C149.897 205.786 140.465 210.806 130.823 215.418C119.803 220.691 108.676 225.746 97.5851 230.872C97.2662 231.02 96.769 231.042 96.4523 230.903C78.4979 223.017 60.7108 214.777 43.5374 205.275C37.7168 202.055 31.9513 198.722 26.7291 194.563C16.5069 186.418 9.14654 176.184 4.67006 163.887C2.69029 158.448 1.40124 152.847 0.681921 147.105C0.189178 143.142 0.0131985 139.166 0.0153982 135.175C0.026397 117.197 0.0197977 99.221 0.0197977 81.2429ZM185.267 82.6548C185.267 64.4277 185.267 46.2007 185.267 27.9758C185.267 26.8194 185.256 25.663 185.274 24.5066C185.282 23.9538 185.056 23.7313 184.501 23.6894C179.574 23.326 174.653 22.8502 169.719 22.5837C163.929 22.2709 158.131 21.9537 152.339 21.967C144.62 21.9846 136.899 22.2071 129.187 22.5595C124.312 22.7819 119.437 23.2445 114.598 23.8745C108.564 24.6586 102.541 25.5771 96.5623 26.7027C86.5446 28.5904 76.7557 31.3657 67.178 34.8702C45.7041 42.7293 26.4563 54.2822 9.5073 69.6635C8.92437 70.1921 8.6824 70.7097 8.6824 71.4983C8.7044 92.5051 8.678 113.512 8.71979 134.521C8.72639 137.816 8.93097 141.118 9.19274 144.404C9.58429 149.323 10.6336 154.125 12.1668 158.814C16.2495 171.312 23.5285 181.513 34.1709 189.244C39.3865 193.032 45.0134 196.16 50.6755 199.215C65.5546 207.246 80.8583 214.401 96.2939 221.277C96.681 221.449 97.2816 221.447 97.6687 221.273C102.884 218.947 108.1 216.614 113.278 214.204C125.511 208.515 137.64 202.614 149.343 195.883C154.829 192.729 160.199 189.398 164.895 185.085C176.413 174.506 182.788 161.305 184.598 145.88C185.133 141.332 185.214 136.713 185.234 132.127C185.307 115.635 185.263 99.1417 185.263 82.6504L185.267 82.6548Z" fill="#FAB80A"/>
<path d="M185.267 82.6572C185.267 99.1485 185.311 115.642 185.239 132.133C185.219 136.722 185.137 141.341 184.603 145.887C182.79 161.314 176.415 174.513 164.9 185.092C160.206 189.405 154.834 192.733 149.348 195.89C137.643 202.621 125.516 208.522 113.283 214.211C108.105 216.621 102.889 218.951 97.6733 221.28C97.284 221.454 96.6856 221.456 96.2985 221.284C80.8629 214.407 65.5592 207.253 50.6802 199.222C45.018 196.167 39.3911 193.039 34.1755 189.251C23.5331 181.519 16.2541 171.319 12.1714 158.821C10.6404 154.131 9.58891 149.332 9.19735 144.411C8.93558 141.125 8.73101 137.823 8.72441 134.528C8.68261 113.521 8.70681 92.5141 8.68701 71.5051C8.68701 70.7143 8.92678 70.1989 9.51192 69.6703C26.461 54.2891 45.7087 42.7361 67.1827 34.877C76.7604 31.3726 86.5492 28.5972 96.5669 26.7095C102.546 25.584 108.569 24.6654 114.603 23.8813C119.442 23.2513 124.317 22.7888 129.191 22.5663C136.901 22.2161 144.625 21.9914 152.344 21.9738C158.138 21.9606 163.936 22.2778 169.724 22.5905C174.656 22.8571 179.579 23.3306 184.506 23.6963C185.063 23.7381 185.289 23.9584 185.278 24.5135C185.258 25.6699 185.272 26.8263 185.272 27.9827C185.272 46.2097 185.272 64.4368 185.272 82.6616L185.267 82.6572ZM93.5202 154.876C95.2206 155.123 96.7538 155.405 98.3003 155.559C102.651 155.99 106.91 155.563 111.002 153.949C117.313 151.46 121.723 146.896 124.88 141.015C128.787 133.735 130.225 125.823 130.586 117.682C130.784 113.175 130.65 108.666 129.981 104.184C129.211 99.0098 127.885 94.0163 125.406 89.3841C120.342 79.9215 112.339 75.036 101.725 74.3708C98.518 74.1703 95.3086 74.3509 92.1102 74.8003C87.1058 75.5029 82.3939 77.0184 77.9966 79.5316C77.1233 80.0316 76.8153 80.5999 76.8153 81.6175C76.8439 117.376 76.8395 153.134 76.8395 188.892C76.8395 189.083 76.8593 189.279 76.8373 189.469C76.7449 190.207 77.0771 190.394 77.7854 190.389C82.6227 190.361 87.4621 190.374 92.3016 190.374C93.1125 190.374 93.518 189.979 93.518 189.189C93.518 178.151 93.518 167.112 93.518 156.074V154.876H93.5202ZM67.9504 112.783C67.9504 100.891 67.9504 88.9987 67.9504 77.1065C67.9504 76.3678 67.5749 75.9978 66.8241 75.9963C62.0682 75.9963 57.3124 75.9963 52.5565 75.9963C51.7397 75.9963 51.3313 76.4163 51.3313 77.2563C51.3313 97.6816 51.3225 118.107 51.3555 138.532C51.3555 139.488 51.0255 139.977 50.2204 140.369C47.8865 141.499 45.4008 141.94 42.8601 141.812C38.5332 141.594 36.0057 139.521 34.9388 135.321C34.5296 133.715 34.2943 132.017 34.2899 130.36C34.2437 112.605 34.2613 94.8489 34.2591 77.0955C34.2591 76.3656 33.8836 76 33.1328 75.9985C28.2669 75.9985 23.4011 76.0162 18.5353 75.9809C17.7544 75.9743 17.519 76.1725 17.519 76.9787C17.5432 94.5956 17.5344 112.215 17.5432 129.832C17.5432 133.056 17.8907 136.25 18.6959 139.38C20.1213 144.913 22.8908 149.517 27.904 152.532C32.0791 155.041 36.7074 155.843 41.4742 155.995C45.1874 156.112 48.883 155.816 52.5455 155.182C57.7039 154.29 62.5874 152.636 67.0683 149.869C67.7392 149.455 67.968 148.997 67.968 148.215C67.9416 136.407 67.9504 124.596 67.9504 112.787V112.783ZM175.668 94.1177V93.0406C175.668 88.9392 175.648 84.8356 175.685 80.7343C175.692 79.9876 175.474 79.5228 174.843 79.1197C167.394 74.3598 159.352 73.0117 150.872 75.3818C144.134 77.2651 139.079 81.3973 136.263 87.9634C134.721 91.5604 134.493 95.3401 134.801 99.2102C135.142 103.508 136.523 107.356 139.264 110.697C141.987 114.019 145.395 116.512 148.969 118.814C151.671 120.554 154.427 122.221 157.025 124.107C159.735 126.074 161.457 128.724 161.657 132.204C161.88 136.032 160.417 139.722 156.253 141.387C153.811 142.363 151.279 142.449 148.718 141.984C144.046 141.138 139.939 139.07 136.226 136.158C136.022 135.997 135.808 135.852 135.41 135.561V136.728C135.41 141.05 135.434 145.374 135.39 149.695C135.381 150.526 135.643 150.982 136.373 151.369C143.624 155.217 151.264 156.942 159.431 155.499C166.167 154.31 171.481 150.905 175.005 144.933C176.985 141.581 178.001 137.931 178.215 134.05C178.459 129.598 178.034 125.261 176.004 121.204C174.242 117.682 171.675 114.796 168.521 112.536C165.087 110.076 161.455 107.889 157.887 105.616C155.912 104.356 153.958 103.089 152.449 101.245C149.414 97.534 149.728 90.111 156.209 88.0339C158.345 87.3489 160.529 87.2145 162.722 87.5295C167.346 88.1925 171.316 90.2674 174.79 93.3489C175.027 93.5604 175.267 93.7674 175.67 94.1177H175.668Z" fill="#301506"/>
<path d="M93.5176 154.876V156.074C93.5176 167.112 93.5176 178.152 93.5176 189.189C93.5176 189.978 93.1121 190.373 92.3012 190.374C87.4617 190.374 82.6245 190.361 77.785 190.39C77.0767 190.394 76.7445 190.207 76.8369 189.469C76.8611 189.279 76.8391 189.083 76.8391 188.892C76.8391 153.134 76.8435 117.376 76.8149 81.6176C76.8149 80.5999 77.1207 80.0316 77.9962 79.5316C82.3935 77.0184 87.1054 75.503 92.1098 74.8003C95.306 74.351 98.5176 74.1704 101.725 74.3708C112.339 75.036 120.339 79.9215 125.405 89.3842C127.884 94.0164 129.211 99.0098 129.981 104.184C130.647 108.666 130.784 113.175 130.586 117.682C130.227 125.825 128.786 133.735 124.879 141.015C121.725 146.894 117.314 151.46 111.001 153.949C106.91 155.563 102.651 155.991 98.2999 155.559C96.7534 155.405 95.2202 155.123 93.5198 154.876H93.5176ZM93.5132 115.1C93.5132 123.44 93.522 131.779 93.4956 140.118C93.4934 140.858 93.742 141.193 94.4305 141.398C96.2123 141.927 98.0205 142.158 99.8771 142.085C102.644 141.975 105.077 141.059 107.125 139.169C108.903 137.528 110.068 135.488 110.933 133.259C112.878 128.237 113.441 122.959 113.5 117.649C113.548 113.202 113.313 108.746 113.014 104.305C112.818 101.402 112.158 98.5494 111.083 95.8203C110.073 93.263 108.687 90.9569 106.278 89.4965C102.559 87.2432 98.6122 87.3819 94.5911 88.5626C93.7772 88.8027 93.489 89.2079 93.4934 90.0846C93.5286 98.4239 93.5132 106.763 93.5132 115.102V115.1Z" fill="#FAB80A"/>
<path d="M67.9499 112.783C67.9499 124.591 67.9411 136.402 67.9675 148.211C67.9675 148.993 67.7388 149.453 67.0678 149.865C62.5848 152.631 57.7035 154.286 52.5451 155.178C48.8825 155.812 45.187 156.107 41.4738 155.99C36.7069 155.838 32.0787 155.037 27.9036 152.528C22.8881 149.515 20.1209 144.911 18.6954 139.376C17.8903 136.246 17.5428 133.054 17.5428 129.827C17.534 112.21 17.5428 94.5912 17.5186 76.9743C17.5186 76.1681 17.7517 75.9699 18.5348 75.9765C23.4007 76.0117 28.2665 75.9941 33.1324 75.9941C33.8832 75.9941 34.2586 76.3597 34.2586 77.091C34.2586 94.8467 34.2432 112.602 34.2894 130.356C34.2938 132.012 34.5292 133.711 34.9383 135.316C36.0074 139.517 38.5327 141.589 42.8596 141.808C45.4003 141.935 47.8883 141.497 50.22 140.365C51.0251 139.975 51.3573 139.484 51.355 138.528C51.3221 118.102 51.3309 97.6771 51.3309 77.2518C51.3309 76.4133 51.7393 75.9934 52.5561 75.9919C57.312 75.9919 62.0678 75.9919 66.8237 75.9919C67.573 75.9919 67.9485 76.3619 67.9499 77.102C67.9499 88.9942 67.9499 100.886 67.9499 112.779V112.783Z" fill="#FAB80A"/>
<path d="M175.668 94.1176C175.267 93.7674 175.025 93.5581 174.788 93.3488C171.314 90.2695 167.344 88.1946 162.72 87.5294C160.527 87.2144 158.342 87.3488 156.206 88.0338C149.726 90.1109 149.411 97.5339 152.447 101.245C153.956 103.089 155.909 104.356 157.885 105.615C161.451 107.889 165.082 110.076 168.518 112.536C171.673 114.796 174.238 117.682 176.002 121.204C178.032 125.261 178.457 129.598 178.213 134.05C177.999 137.931 176.983 141.581 175.003 144.933C171.477 150.904 166.162 154.31 159.429 155.499C151.259 156.942 143.619 155.217 136.371 151.369C135.643 150.982 135.381 150.526 135.388 149.695C135.432 145.374 135.408 141.05 135.408 136.728V135.561C135.806 135.851 136.019 135.997 136.224 136.158C139.937 139.067 144.044 141.138 148.716 141.984C151.277 142.448 153.809 142.363 156.25 141.387C160.415 139.722 161.877 136.032 161.655 132.204C161.455 128.724 159.733 126.074 157.022 124.107C154.425 122.221 151.668 120.552 148.967 118.814C145.392 116.512 141.985 114.019 139.262 110.697C136.521 107.356 135.139 103.508 134.798 99.2101C134.49 95.3401 134.719 91.5625 136.261 87.9633C139.077 81.3994 144.134 77.265 150.87 75.3817C159.352 73.0117 167.392 74.3597 174.84 79.1196C175.472 79.5227 175.69 79.9897 175.683 80.7342C175.648 84.8356 175.665 88.9391 175.665 93.0405V94.1176H175.668Z" fill="#FAB80A"/>
<path d="M93.5155 115.1C93.5155 106.761 93.5287 98.4216 93.4957 90.0823C93.4913 89.2056 93.7794 88.8003 94.5933 88.5602C98.6145 87.3796 102.561 87.2408 106.281 89.4942C108.689 90.9523 110.075 93.2607 111.085 95.818C112.163 98.5471 112.82 101.4 113.016 104.303C113.315 108.743 113.551 113.199 113.502 117.646C113.445 122.957 112.88 128.235 110.935 133.257C110.073 135.486 108.907 137.528 107.127 139.166C105.082 141.054 102.647 141.97 99.8793 142.083C98.0227 142.158 96.2167 141.924 94.4327 141.396C93.7442 141.191 93.4957 140.858 93.4979 140.116C93.5243 131.776 93.5155 123.437 93.5155 115.098V115.1Z" fill="#301506"/>
</g>
<defs>
<clipPath id="clip0_82_2500">
<rect width="194" height="231" fill="white"/>
</clipPath>
</defs>
</svg>
