<svg width="16" height="15" viewBox="0 0 16 15" fill="none" xmlns="http://www.w3.org/2000/svg">
<path d="M6.18961 10.25C6.54177 10.2501 6.88268 10.3741 7.15261 10.6003L7.25011 10.6895L8.00011 11.4395L8.75011 10.6895C8.99913 10.4405 9.32782 10.287 9.67861 10.256L9.81061 10.25H12.8286C13.3074 10.25 13.7738 10.4027 14.1598 10.686C14.5459 10.9692 14.8315 11.3682 14.9751 11.825L15.0119 11.954L15.3614 13.352C15.4008 13.5098 15.4056 13.6743 15.3753 13.8341C15.3451 13.9939 15.2805 14.1452 15.1861 14.2777C15.0917 14.4101 14.9697 14.5206 14.8286 14.6013C14.6874 14.6821 14.5304 14.7313 14.3684 14.7455L14.2701 14.75H1.73011C1.5675 14.7499 1.40683 14.7146 1.25917 14.6465C1.11152 14.5784 0.980385 14.4791 0.87481 14.3554C0.769235 14.2317 0.691728 14.0866 0.647629 13.9301C0.603529 13.7736 0.593885 13.6094 0.619361 13.4488L0.638861 13.352L0.988361 11.954C1.10452 11.4894 1.36586 11.0741 1.73437 10.7683C2.10288 10.4625 2.55935 10.2822 3.03736 10.2537L3.17161 10.25H6.18961ZM8.00011 0.5C8.58811 0.5 9.24586 0.6425 9.78511 0.79325C10.9821 1.127 11.6916 2.21525 11.7464 3.3545L11.7501 3.497V6.50225C11.7501 7.69325 11.0324 8.8595 9.78511 9.20675C9.24586 9.35675 8.58811 9.5 8.00011 9.5C7.41211 9.5 6.75436 9.3575 6.21511 9.20675C5.01811 8.873 4.30861 7.78475 4.25386 6.6455L4.25011 6.503V3.497C4.25011 2.30675 4.96786 1.13975 6.21511 0.7925C6.75436 0.64325 7.41211 0.5 8.00011 0.5Z" fill="#E00917"/>
</svg>
