<svg width="25" height="24" viewBox="0 0 25 24" fill="none" xmlns="http://www.w3.org/2000/svg">
<g clip-path="url(#clip0_2026_1469)">
<path d="M12.0197 0.106445C5.38184 0.106445 0 5.45558 0 12.0531C0 18.6507 5.38184 23.9998 12.0197 23.9998C18.6576 23.9998 24.0395 18.6507 24.0395 12.0531C24.0395 5.45409 18.6576 0.106445 12.0197 0.106445ZM19.4044 14.7277C19.3232 15.7223 18.5645 16.9916 17.5007 17.1753C14.1007 17.4366 10.065 17.4053 6.54024 17.1753C5.44043 17.0379 4.71775 15.7208 4.63661 14.7277C4.46533 12.64 4.46533 11.4513 4.63661 9.36364C4.71775 8.37057 5.45846 7.06092 6.54024 6.94145C10.0245 6.65025 14.0796 6.71297 17.5007 6.94145C18.7267 6.98625 19.3232 8.23916 19.4044 9.23372C19.5741 11.3214 19.5741 12.64 19.4044 14.7277ZM10.5173 15.0398L15.0247 12.0531L10.5173 9.06647V15.0398Z" fill="white"/>
</g>
<defs>
<clipPath id="clip0_2026_1469">
<rect width="24.0395" height="23.8934" fill="white" transform="translate(0 0.106445)"/>
</clipPath>
</defs>
</svg>
